<svg width="24" height="24" viewBox="0 0 24 24" fill="none" xmlns="http://www.w3.org/2000/svg">
<path d="M6.93555 5.00002C6.93528 5.53046 6.72431 6.03906 6.34905 6.41394C5.97379 6.78883 5.46498 6.99929 4.93455 6.99902C4.40411 6.99876 3.89551 6.78779 3.52063 6.41253C3.14574 6.03727 2.93528 5.52846 2.93555 4.99802C2.93581 4.46759 3.14678 3.95899 3.52204 3.5841C3.8973 3.20922 4.40611 2.99876 4.93655 2.99902C5.46698 2.99929 5.97558 3.21026 6.35047 3.58552C6.72535 3.96078 6.93581 4.46959 6.93555 5.00002ZM6.99555 8.48002H2.99555V21H6.99555V8.48002ZM13.3155 8.48002H9.33555V21H13.2755V14.43C13.2755 10.77 18.0455 10.43 18.0455 14.43V21H21.9955V13.07C21.9955 6.90002 14.9355 7.13002 13.2755 10.16L13.3155 8.48002Z" fill="white"/>
</svg>
