<svg width="40" height="40" viewBox="0 0 40 40" fill="none" xmlns="http://www.w3.org/2000/svg">
<path d="M26.6667 3.33301H13.3333C11.4924 3.33301 10 4.82539 10 6.66634V33.333C10 35.174 11.4924 36.6663 13.3333 36.6663H26.6667C28.5076 36.6663 30 35.174 30 33.333V6.66634C30 4.82539 28.5076 3.33301 26.6667 3.33301Z" stroke="white" stroke-width="2" stroke-linecap="round" stroke-linejoin="round"/>
<path opacity="0.1" d="M26.6667 3.33301H13.3333C11.4924 3.33301 10 4.82539 10 6.66634V33.333C10 35.174 11.4924 36.6663 13.3333 36.6663H26.6667C28.5076 36.6663 30 35.174 30 33.333V6.66634C30 4.82539 28.5076 3.33301 26.6667 3.33301Z" fill="white"/>
<path d="M18.332 8.33301H21.6654" stroke="white" stroke-width="2" stroke-linecap="round" stroke-linejoin="round"/>
<path d="M19.918 31.667H20.0846" stroke="white" stroke-width="2" stroke-linecap="round" stroke-linejoin="round"/>
</svg>
