<svg width="40" height="40" viewBox="0 0 40 40" fill="none" xmlns="http://www.w3.org/2000/svg">
<path opacity="0.1" d="M35 20C35 28.2843 28.2843 35 20 35C11.7157 35 5 28.2843 5 20C5 11.7157 11.7157 5 20 5C28.2843 5 35 11.7157 35 20Z" fill="white"/>
<path fill-rule="evenodd" clip-rule="evenodd" d="M11.668 4C12.2203 4 12.668 4.44772 12.668 5V19.5117C12.668 20.0639 12.2203 20.5117 11.668 20.5117C11.1157 20.5117 10.668 20.0639 10.668 19.5117V5C10.668 4.44772 11.1157 4 11.668 4Z" fill="white"/>
<path fill-rule="evenodd" clip-rule="evenodd" d="M10.9596 4.29289C11.3501 3.90237 11.9832 3.90237 12.3738 4.29289L19.0404 10.9596C19.431 11.3501 19.431 11.9832 19.0404 12.3738C18.6499 12.7643 18.0168 12.7643 17.6262 12.3738L11.6667 6.41421L5.70711 12.3738C5.31658 12.7643 4.68342 12.7643 4.29289 12.3738C3.90237 11.9832 3.90237 11.3501 4.29289 10.9596L10.9596 4.29289Z" fill="white"/>
<path fill-rule="evenodd" clip-rule="evenodd" d="M27.6249 9.29289C28.0154 8.90237 28.6486 8.90237 29.0391 9.29289L35.7058 15.9596C36.0963 16.3501 36.0963 16.9832 35.7058 17.3738L29.0391 24.0404C28.6486 24.431 28.0154 24.431 27.6249 24.0404C27.2344 23.6499 27.2344 23.0168 27.6249 22.6262L33.5845 16.6667L27.6249 10.7071C27.2344 10.3166 27.2344 9.68342 27.6249 9.29289Z" fill="white"/>
<path fill-rule="evenodd" clip-rule="evenodd" d="M30.0013 17.667C25.4042 17.667 20.9954 19.4932 17.7448 22.7438C14.4942 25.9944 12.668 30.4032 12.668 35.0003C12.668 35.5526 12.2203 36.0003 11.668 36.0003C11.1157 36.0003 10.668 35.5526 10.668 35.0003C10.668 29.8728 12.7049 24.9553 16.3306 21.3296C19.9563 17.7039 24.8738 15.667 30.0013 15.667H35.0013C35.5536 15.667 36.0013 16.1147 36.0013 16.667C36.0013 17.2193 35.5536 17.667 35.0013 17.667H30.0013Z" fill="white"/>
</svg>
