<svg width="40" height="40" viewBox="0 0 40 40" fill="none" xmlns="http://www.w3.org/2000/svg">
<path opacity="0.1" d="M29.6651 33.0285L26.0451 34.9251C25.9377 34.981 25.8168 35.006 25.696 34.9972C25.5753 34.9884 25.4593 34.9462 25.3611 34.8753C25.2629 34.8044 25.1863 34.7077 25.14 34.5958C25.0936 34.4839 25.0792 34.3614 25.0984 34.2418L25.7901 30.2235L22.8618 27.3785C22.7744 27.294 22.7125 27.1866 22.6832 27.0686C22.6539 26.9506 22.6583 26.8268 22.696 26.7112C22.7338 26.5956 22.8032 26.493 22.8965 26.415C22.9897 26.337 23.103 26.2868 23.2234 26.2701L27.2701 25.6835L29.0801 22.0285C29.1342 21.9196 29.2177 21.828 29.321 21.764C29.4244 21.6999 29.5435 21.666 29.6651 21.666C29.7867 21.666 29.9058 21.6999 30.0092 21.764C30.1125 21.828 30.196 21.9196 30.2501 22.0285L32.0601 25.6835L36.1068 26.2701C36.2268 26.2874 36.3397 26.3379 36.4325 26.416C36.5254 26.494 36.5945 26.5965 36.6322 26.7119C36.6698 26.8272 36.6744 26.9507 36.6455 27.0685C36.6165 27.1863 36.5552 27.2937 36.4684 27.3785L33.5401 30.2235L34.2301 34.2401C34.2508 34.3599 34.2375 34.4831 34.1917 34.5957C34.146 34.7083 34.0695 34.8058 33.9711 34.8771C33.8727 34.9485 33.7562 34.9908 33.635 34.9993C33.5137 35.0078 33.3925 34.9821 33.2851 34.9251L29.6651 33.0285Z" fill="white"/>
<path opacity="0.1" d="M10.3331 33.0285L6.71308 34.9251C6.60565 34.981 6.4848 35.006 6.36401 34.9972C6.24323 34.9884 6.12726 34.9462 6.02906 34.8753C5.93087 34.8044 5.8543 34.7077 5.80792 34.5958C5.76154 34.4839 5.74717 34.3614 5.76641 34.2418L6.45808 30.2235L3.52975 27.3785C3.44234 27.294 3.38045 27.1866 3.35115 27.0686C3.32184 26.9506 3.3263 26.8268 3.36402 26.7112C3.40173 26.5956 3.47118 26.493 3.56443 26.415C3.65769 26.337 3.77099 26.2868 3.89141 26.2701L7.93808 25.6835L9.74808 22.0285C9.80221 21.9196 9.88564 21.828 9.98899 21.764C10.0923 21.6999 10.2115 21.666 10.3331 21.666C10.4547 21.666 10.5738 21.6999 10.6772 21.764C10.7805 21.828 10.8639 21.9196 10.9181 22.0285L12.7281 25.6835L16.7747 26.2701C16.8948 26.2874 17.0077 26.3379 17.1005 26.416C17.1933 26.494 17.2625 26.5965 17.3001 26.7119C17.3378 26.8272 17.3424 26.9507 17.3134 27.0685C17.2845 27.1863 17.2232 27.2937 17.1364 27.3785L14.2081 30.2235L14.8981 34.2401C14.9188 34.3599 14.9055 34.4831 14.8597 34.5957C14.8139 34.7083 14.7375 34.8058 14.6391 34.8771C14.5406 34.9485 14.4242 34.9908 14.3029 34.9993C14.1817 35.0078 14.0605 34.9821 13.9531 34.9251L10.3331 33.0285Z" fill="white"/>
<path opacity="0.1" d="M20.001 16.3615L16.381 18.2581C16.2736 18.314 16.1528 18.339 16.032 18.3302C15.9112 18.3214 15.7952 18.2792 15.697 18.2083C15.5988 18.1375 15.5223 18.0407 15.4759 17.9288C15.4295 17.8169 15.4151 17.6944 15.4344 17.5748L16.126 13.5565L13.1977 10.7115C13.1103 10.627 13.0484 10.5196 13.0191 10.4016C12.9898 10.2836 12.9943 10.1598 13.032 10.0442C13.0697 9.92863 13.1391 9.82599 13.2324 9.748C13.3257 9.67001 13.439 9.61981 13.5594 9.60313L17.606 9.01646L19.416 5.36146C19.4702 5.2526 19.5536 5.16101 19.657 5.09698C19.7603 5.03295 19.8795 4.99902 20.001 4.99902C20.1226 4.99902 20.2418 5.03295 20.3451 5.09698C20.4485 5.16101 20.5319 5.2526 20.586 5.36146L22.396 9.01646L26.4427 9.60313C26.5628 9.6204 26.6756 9.67093 26.7685 9.74899C26.8613 9.82706 26.9305 9.92955 26.9681 10.0449C27.0057 10.1602 27.0103 10.2837 26.9814 10.4015C26.9525 10.5193 26.8912 10.6267 26.8044 10.7115L23.876 13.5565L24.566 17.5731C24.5868 17.6929 24.5735 17.8161 24.5277 17.9287C24.4819 18.0413 24.4055 18.1388 24.307 18.2101C24.2086 18.2815 24.0922 18.3238 23.9709 18.3323C23.8496 18.3408 23.7284 18.3151 23.621 18.2581L20.001 16.3615Z" fill="white"/>
<path fill-rule="evenodd" clip-rule="evenodd" d="M10.3331 23.1005L8.83422 26.1272C8.68832 26.4219 8.40692 26.6259 8.08155 26.6731L4.73778 27.1579L7.15491 29.5062C7.39154 29.7361 7.49955 30.0679 7.44359 30.3931L6.87217 33.7128L9.86898 32.1427C10.1596 31.9904 10.5065 31.9904 10.7972 32.1427L13.7927 33.7122L13.2225 30.3928C13.1667 30.0677 13.2747 29.736 13.5112 29.5062L15.9284 27.1579L12.5846 26.6731C12.2592 26.6259 11.9778 26.4219 11.8319 26.1272L10.3331 23.1005ZM16.6324 27.2599C16.632 27.2599 16.6316 27.2598 16.6313 27.2598L16.6324 27.2599ZM9.46232 20.9139C9.72385 20.7519 10.0254 20.666 10.3331 20.666C10.6407 20.666 10.9423 20.7519 11.2038 20.9139C11.4654 21.0759 11.6765 21.3077 11.8135 21.5832L11.8142 21.5847L13.3912 24.7691L16.9171 25.2803C16.9169 25.2803 16.9174 25.2803 16.9171 25.2803C17.2217 25.3242 17.5085 25.4526 17.744 25.6506C17.9797 25.8487 18.1553 26.1089 18.2508 26.4016C18.3463 26.6944 18.358 27.008 18.2846 27.307C18.2111 27.6061 18.0555 27.8786 17.8352 28.0938L17.8332 28.0957L15.2829 30.5735L15.8835 34.0698C15.8835 34.0697 15.8835 34.0698 15.8835 34.0698C15.936 34.3738 15.9023 34.6866 15.7861 34.9723C15.6698 35.2582 15.4758 35.5057 15.226 35.6868C14.9761 35.8679 14.6805 35.9753 14.3727 35.9968C14.0659 36.0183 13.7592 35.9536 13.4873 35.81C13.4864 35.8095 13.4855 35.8091 13.4846 35.8086L10.3331 34.1574L7.17718 35.8109L7.17476 35.8122C6.9029 35.9537 6.59707 36.0168 6.29141 35.9946C5.98574 35.9723 5.69228 35.8655 5.44378 35.6862C5.19528 35.5068 5.00153 35.2619 4.88416 34.9788C4.76679 34.6957 4.73042 34.3855 4.77911 34.0829L4.78085 34.0721L5.38315 30.5733L2.8347 28.0974C2.83432 28.0971 2.83395 28.0967 2.83357 28.0963C2.61194 27.8817 2.45501 27.6091 2.38064 27.3097C2.30613 27.0097 2.31747 26.6948 2.41335 26.401C2.50923 26.1072 2.68579 25.8462 2.92289 25.6479C3.15898 25.4505 3.44561 25.3231 3.75032 25.2801L7.27496 24.7691L8.85267 21.5832C8.98966 21.3077 9.20079 21.0759 9.46232 20.9139Z" fill="white"/>
<path fill-rule="evenodd" clip-rule="evenodd" d="M20.001 6.43451L18.5022 9.46122C18.3563 9.75584 18.0749 9.95992 17.7495 10.0071L14.4057 10.4919L16.8229 12.8402C17.0595 13.0701 17.1675 13.4019 17.1116 13.7271L16.5401 17.0468L19.5369 15.4767C19.8276 15.3244 20.1745 15.3244 20.4651 15.4767L23.4607 17.0462L22.8905 13.7267C22.8346 13.4017 22.9427 13.07 23.1792 12.8402L25.5963 10.4919L22.2526 10.0071C21.9272 9.95992 21.6458 9.75584 21.4999 9.46122L20.001 6.43451ZM26.3003 10.5939C26.3 10.5939 26.2996 10.5938 26.2992 10.5938L26.3003 10.5939ZM19.1303 4.24788C19.3918 4.08585 19.6934 4 20.001 4C20.3087 4 20.6103 4.08585 20.8718 4.24788C21.1333 4.40991 21.3445 4.64171 21.4815 4.91719L21.4822 4.91866L23.0592 8.10312L26.5851 8.6143C26.5849 8.61426 26.5853 8.61433 26.5851 8.6143C26.8896 8.65823 27.1765 8.78654 27.412 8.98456C27.6477 9.18273 27.8232 9.4429 27.9188 9.73563C28.0143 10.0284 28.026 10.342 27.9525 10.641C27.8791 10.9401 27.7234 11.2126 27.5032 11.4278L27.5012 11.4297L24.9508 13.9075L25.5514 17.4037C25.5514 17.4037 25.5514 17.4038 25.5514 17.4037C25.604 17.7078 25.5702 18.0205 25.454 18.3063C25.3378 18.5922 25.1438 18.8397 24.8939 19.0208C24.6441 19.2019 24.3485 19.3093 24.0407 19.3308C23.7339 19.3523 23.4272 19.2876 23.1553 19.144C23.1544 19.1435 23.1535 19.1431 23.1526 19.1426L20.001 17.4914L16.8451 19.1449L16.8427 19.1462C16.5709 19.2876 16.265 19.3508 15.9594 19.3285C15.6537 19.3063 15.3602 19.1995 15.1117 19.0201C14.8633 18.8408 14.6695 18.5959 14.5521 18.3127C14.4348 18.0296 14.3984 17.7195 14.4471 17.4169L14.4488 17.4061L15.0511 13.9073L12.5027 11.4314C12.5023 11.431 12.5019 11.4307 12.5015 11.4303C12.2799 11.2157 12.123 10.9431 12.0486 10.6436C11.9741 10.3437 11.9854 10.0288 12.0813 9.73497C12.1772 9.44114 12.3538 9.18018 12.5909 8.98189C12.8269 8.78444 13.1136 8.65705 13.4183 8.61411L16.9429 8.10312L18.5206 4.91719C18.6576 4.64171 18.8688 4.40991 19.1303 4.24788Z" fill="white"/>
<path fill-rule="evenodd" clip-rule="evenodd" d="M30.001 23.4345L28.5022 26.4612C28.3563 26.7558 28.0749 26.9599 27.7495 27.0071L24.4057 27.4919L26.8229 29.8402C27.0595 30.0701 27.1675 30.4019 27.1116 30.7271L26.5401 34.0468L29.5369 32.4767C29.8276 32.3244 30.1745 32.3244 30.4651 32.4767L33.4607 34.0462L32.8905 30.7267C32.8346 30.4017 32.9427 30.07 33.1792 29.8402L35.5963 27.4919L32.2526 27.0071C31.9272 26.9599 31.6458 26.7558 31.4999 26.4612L30.001 23.4345ZM36.3003 27.5939C36.3 27.5939 36.2996 27.5938 36.2992 27.5938L36.3003 27.5939ZM29.1303 21.2479C29.3918 21.0858 29.6934 21 30.001 21C30.3087 21 30.6103 21.0858 30.8718 21.2479C31.1333 21.4099 31.3445 21.6417 31.4815 21.9172L31.4822 21.9187L33.0592 25.1031L36.5851 25.6143C36.5849 25.6143 36.5853 25.6143 36.5851 25.6143C36.8896 25.6582 37.1765 25.7865 37.412 25.9846C37.6477 26.1827 37.8232 26.4429 37.9188 26.7356C38.0143 27.0284 38.026 27.342 37.9525 27.641C37.8791 27.9401 37.7234 28.2126 37.5032 28.4278L37.5012 28.4297L34.9508 30.9075L35.5514 34.4037C35.5514 34.4037 35.5514 34.4038 35.5514 34.4037C35.604 34.7078 35.5702 35.0205 35.454 35.3063C35.3378 35.5922 35.1438 35.8397 34.8939 36.0208C34.6441 36.2019 34.3485 36.3093 34.0407 36.3308C33.7339 36.3523 33.4272 36.2876 33.1553 36.144C33.1544 36.1435 33.1535 36.1431 33.1526 36.1426L30.001 34.4914L26.8451 36.1449L26.8427 36.1462C26.5709 36.2876 26.265 36.3508 25.9594 36.3285C25.6537 36.3063 25.3602 36.1995 25.1117 36.0201C24.8633 35.8408 24.6695 35.5959 24.5521 35.3127C24.4348 35.0296 24.3984 34.7195 24.4471 34.4169L24.4488 34.4061L25.0511 30.9073L22.5027 28.4314C22.5023 28.431 22.5019 28.4307 22.5015 28.4303C22.2799 28.2157 22.123 27.9431 22.0486 27.6436C21.9741 27.3437 21.9854 27.0288 22.0813 26.735C22.1772 26.4411 22.3538 26.1802 22.5909 25.9819C22.8269 25.7844 23.1136 25.6571 23.4183 25.6141L26.9429 25.1031L28.5206 21.9172C28.6576 21.6417 28.8688 21.4099 29.1303 21.2479Z" fill="white"/>
</svg>
