<svg width="24" height="24" viewBox="0 0 24 24" fill="none" xmlns="http://www.w3.org/2000/svg">
<path fill-rule="evenodd" clip-rule="evenodd" d="M17.4958 6.50483C17.7691 6.7782 17.7691 7.22141 17.4958 7.49478L7.49576 17.4948C7.22239 17.7681 6.77917 17.7681 6.50581 17.4948C6.23244 17.2214 6.23244 16.7782 6.50581 16.5048L16.5058 6.50483C16.7792 6.23146 17.2224 6.23146 17.4958 6.50483Z" fill="white"/>
<path fill-rule="evenodd" clip-rule="evenodd" d="M6.30078 6.9998C6.30078 6.61321 6.61418 6.2998 7.00078 6.2998H17.0008C17.3874 6.2998 17.7008 6.61321 17.7008 6.9998V16.9998C17.7008 17.3864 17.3874 17.6998 17.0008 17.6998C16.6142 17.6998 16.3008 17.3864 16.3008 16.9998V7.6998H7.00078C6.61418 7.6998 6.30078 7.3864 6.30078 6.9998Z" fill="white"/>
</svg>
