<svg width="40" height="40" viewBox="0 0 40 40" fill="none" xmlns="http://www.w3.org/2000/svg">
<path opacity="0.1" d="M19.9987 3.33301L25.1487 13.7663L36.6654 15.4497L28.332 23.5663L30.2987 35.033L19.9987 29.6163L9.6987 35.033L11.6654 23.5663L3.33203 15.4497L14.8487 13.7663L19.9987 3.33301Z" fill="white"/>
<path fill-rule="evenodd" clip-rule="evenodd" d="M20.0007 2.33301C20.3813 2.33301 20.7289 2.54908 20.8974 2.89038L25.8149 12.8528L36.812 14.4602C37.1885 14.5152 37.5012 14.7792 37.6186 15.1412C37.736 15.5032 37.6377 15.9005 37.3651 16.166L29.4085 23.9157L31.2863 34.864C31.3506 35.2392 31.1964 35.6183 30.8884 35.8421C30.5804 36.0658 30.1721 36.0953 29.8352 35.9181L20.0007 30.7462L10.1661 35.9181C9.82922 36.0953 9.42092 36.0658 9.11295 35.8421C8.80497 35.6183 8.65072 35.2392 8.71507 34.864L10.5928 23.9157L2.63628 16.166C2.36366 15.9005 2.26539 15.5032 2.38277 15.1412C2.50015 14.7792 2.81283 14.5152 3.18939 14.4602L14.1864 12.8528L19.104 2.89038C19.2724 2.54908 19.6201 2.33301 20.0007 2.33301ZM20.0007 5.59226L15.7474 14.209C15.6018 14.5038 15.3207 14.7083 14.9953 14.7558L5.48242 16.1463L12.3651 22.85C12.601 23.0797 12.7086 23.4109 12.653 23.7354L11.0289 33.2047L19.5352 28.7313C19.8266 28.578 20.1747 28.578 20.4661 28.7313L28.9725 33.2047L27.3484 23.7354C27.2927 23.4109 27.4004 23.0797 27.6363 22.85L34.5189 16.1463L25.0061 14.7558C24.6807 14.7083 24.3995 14.5038 24.254 14.209L20.0007 5.59226Z" fill="white"/>
</svg>
