<svg width="40" height="40" viewBox="0 0 40 40" fill="none" xmlns="http://www.w3.org/2000/svg">
<path fill-rule="evenodd" clip-rule="evenodd" d="M8.33464 22.667C8.15782 22.667 7.98826 22.7372 7.86323 22.8623C7.73821 22.9873 7.66797 23.1568 7.66797 23.3337V30.0003C7.66797 30.1771 7.73821 30.3467 7.86323 30.4717C7.98825 30.5968 8.15782 30.667 8.33464 30.667H31.668C31.8448 30.667 32.0144 30.5968 32.1394 30.4717C32.2644 30.3467 32.3346 30.1771 32.3346 30.0003V23.3337C32.3346 23.1568 32.2644 22.9873 32.1394 22.8623C32.0143 22.7372 31.8448 22.667 31.668 22.667H8.33464ZM6.44902 21.448C6.94911 20.9479 7.62739 20.667 8.33464 20.667H31.668C32.3752 20.667 33.0535 20.9479 33.5536 21.448C34.0537 21.9481 34.3346 22.6264 34.3346 23.3337V30.0003C34.3346 30.7076 34.0537 31.3858 33.5536 31.8859C33.0535 32.386 32.3752 32.667 31.668 32.667H8.33464C7.62739 32.667 6.94912 32.386 6.44902 31.8859C5.94892 31.3858 5.66797 30.7076 5.66797 30.0003V23.3337C5.66797 22.6264 5.94892 21.9481 6.44902 21.448Z" fill="white"/>
<path opacity="0.1" d="M6.66797 30.0003V23.3337C6.66797 22.8916 6.84356 22.4677 7.15612 22.1551C7.46869 21.8426 7.89261 21.667 8.33464 21.667H31.668C32.11 21.667 32.5339 21.8426 32.8465 22.1551C33.159 22.4677 33.3346 22.8916 33.3346 23.3337V30.0003C33.3346 30.4424 33.159 30.8663 32.8465 31.1788C32.5339 31.4914 32.11 31.667 31.668 31.667H8.33464C7.89261 31.667 7.46869 31.4914 7.15612 31.1788C6.84356 30.8663 6.66797 30.4424 6.66797 30.0003Z" fill="white"/>
<path fill-rule="evenodd" clip-rule="evenodd" d="M20 7.33301C20.5523 7.33301 21 7.78072 21 8.33301V14.9997C21 15.552 20.5523 15.9997 20 15.9997C19.4477 15.9997 19 15.552 19 14.9997V8.33301C19 7.78072 19.4477 7.33301 20 7.33301Z" fill="white"/>
<path fill-rule="evenodd" clip-rule="evenodd" d="M15.668 11.667C15.668 11.1147 16.1157 10.667 16.668 10.667H23.3346C23.8869 10.667 24.3346 11.1147 24.3346 11.667C24.3346 12.2193 23.8869 12.667 23.3346 12.667H16.668C16.1157 12.667 15.668 12.2193 15.668 11.667Z" fill="white"/>
</svg>
