<svg width="40" height="40" viewBox="0 0 40 40" fill="none" xmlns="http://www.w3.org/2000/svg">
<path opacity="0.1" d="M35 20C35 28.2843 28.2843 35 20 35C11.7157 35 5 28.2843 5 20C5 11.7157 11.7157 5 20 5C28.2843 5 35 11.7157 35 20Z" fill="white"/>
<path fill-rule="evenodd" clip-rule="evenodd" d="M4 30C4 29.4477 4.44772 29 5 29H28.3333C28.8856 29 29.3333 29.4477 29.3333 30C29.3333 30.5523 28.8856 31 28.3333 31H5C4.44772 31 4 30.5523 4 30Z" fill="white"/>
<path fill-rule="evenodd" clip-rule="evenodd" d="M14.2929 14.2929C14.6834 13.9024 15.3166 13.9024 15.7071 14.2929L20.7071 19.2929C21.0976 19.6834 21.0976 20.3166 20.7071 20.7071L15.7071 25.7071C15.3166 26.0976 14.6834 26.0976 14.2929 25.7071C13.9024 25.3166 13.9024 24.6834 14.2929 24.2929L18.5858 20L14.2929 15.7071C13.9024 15.3166 13.9024 14.6834 14.2929 14.2929Z" fill="white"/>
<path fill-rule="evenodd" clip-rule="evenodd" d="M22.6249 24.2929C23.0154 23.9024 23.6486 23.9024 24.0391 24.2929L29.0391 29.2929C29.4297 29.6834 29.4297 30.3166 29.0391 30.7071L24.0391 35.7071C23.6486 36.0976 23.0154 36.0976 22.6249 35.7071C22.2344 35.3166 22.2344 34.6834 22.6249 34.2929L26.9178 30L22.6249 25.7071C22.2344 25.3166 22.2344 24.6834 22.6249 24.2929Z" fill="white"/>
<path fill-rule="evenodd" clip-rule="evenodd" d="M5 4C5.55228 4 6 4.44772 6 5V35C6 35.5523 5.55228 36 5 36C4.44772 36 4 35.5523 4 35V5C4 4.44772 4.44772 4 5 4Z" fill="white"/>
<path fill-rule="evenodd" clip-rule="evenodd" d="M4 20C4 19.4477 4.44772 19 5 19H20C20.5523 19 21 19.4477 21 20C21 20.5523 20.5523 21 20 21H5C4.44772 21 4 20.5523 4 20Z" fill="white"/>
<path fill-rule="evenodd" clip-rule="evenodd" d="M29.2929 4.29289C29.6834 3.90237 30.3166 3.90237 30.7071 4.29289L35.7071 9.29289C36.0976 9.68342 36.0976 10.3166 35.7071 10.7071L30.7071 15.7071C30.3166 16.0976 29.6834 16.0976 29.2929 15.7071C28.9024 15.3166 28.9024 14.6834 29.2929 14.2929L33.5858 10L29.2929 5.70711C28.9024 5.31658 28.9024 4.68342 29.2929 4.29289Z" fill="white"/>
<path fill-rule="evenodd" clip-rule="evenodd" d="M4 10C4 9.44772 4.44772 9 5 9H35C35.5523 9 36 9.44772 36 10C36 10.5523 35.5523 11 35 11H5C4.44772 11 4 10.5523 4 10Z" fill="white"/>
</svg>
