<svg width="20" height="20" viewBox="0 0 20 20" fill="none" xmlns="http://www.w3.org/2000/svg">
<path fill-rule="evenodd" clip-rule="evenodd" d="M3.33307 3.9334C2.74397 3.9334 2.26641 4.41096 2.26641 5.00007V15.0001C2.26641 15.5892 2.74396 16.0667 3.33307 16.0667H16.6664C17.2555 16.0667 17.7331 15.5892 17.7331 15.0001V5.00007C17.7331 4.41096 17.2555 3.9334 16.6664 3.9334H3.33307ZM1.06641 5.00007C1.06641 3.74822 2.08123 2.7334 3.33307 2.7334H16.6664C17.9183 2.7334 18.9331 3.74823 18.9331 5.00007V15.0001C18.9331 16.2519 17.9183 17.2667 16.6664 17.2667H3.33307C2.08123 17.2667 1.06641 16.2519 1.06641 15.0001V5.00007Z" fill="white"/>
<path fill-rule="evenodd" clip-rule="evenodd" d="M7.38701 9.31283L2.10156 4.61467L2.8988 3.71777L8.18426 8.41594L8.18426 8.41595C9.21988 9.33653 10.7805 9.33654 11.8161 8.41594L17.1016 3.71777L17.8988 4.61466L12.6134 9.31283C11.1231 10.6376 8.87732 10.6376 7.38702 9.31283C7.38702 9.31283 7.38702 9.31283 7.38701 9.31283Z" fill="white"/>
</svg>
