<svg width="40" height="40" viewBox="0 0 40 40" fill="none" xmlns="http://www.w3.org/2000/svg">
<path opacity="0.1" d="M33 12.5L20 5V20L33 27.5V12.5Z" fill="white"/>
<path fill-rule="evenodd" clip-rule="evenodd" d="M6.66797 22.333C7.22025 22.333 7.66797 22.7807 7.66797 23.333V26.9084L10.4832 28.4568C10.9671 28.7229 11.1437 29.331 10.8775 29.8149C10.6114 30.2988 10.0033 30.4754 9.51938 30.2092L6.18605 28.3759C5.8665 28.2001 5.66797 27.8644 5.66797 27.4997V23.333C5.66797 22.7807 6.11568 22.333 6.66797 22.333Z" fill="white"/>
<path fill-rule="evenodd" clip-rule="evenodd" d="M10.8775 10.1843C11.1437 10.6682 10.9671 11.2763 10.4832 11.5424L7.66797 13.0908V16.6662C7.66797 17.2185 7.22025 17.6662 6.66797 17.6662C6.11568 17.6662 5.66797 17.2185 5.66797 16.6662V12.4995C5.66797 12.1348 5.8665 11.7991 6.18605 11.6233L9.51938 9.78999C10.0033 9.52383 10.6114 9.70036 10.8775 10.1843Z" fill="white"/>
<path fill-rule="evenodd" clip-rule="evenodd" d="M19.5176 4.12378C19.8177 3.95874 20.1814 3.95874 20.4815 4.12378L23.8148 5.95712C24.2987 6.22327 24.4752 6.83133 24.2091 7.31525C23.9429 7.79917 23.3349 7.97571 22.8509 7.70955L19.9995 6.14127L17.1481 7.70955C16.6642 7.97571 16.0561 7.79917 15.79 7.31525C15.5238 6.83133 15.7004 6.22327 16.1843 5.95712L19.5176 4.12378Z" fill="white"/>
<path fill-rule="evenodd" clip-rule="evenodd" d="M29.124 10.1843C29.3901 9.70036 29.9982 9.52383 30.4821 9.78999L33.8154 11.6233C34.135 11.7991 34.3335 12.1348 34.3335 12.4995V16.6662C34.3335 17.2185 33.8858 17.6662 33.3335 17.6662C32.7812 17.6662 32.3335 17.2185 32.3335 16.6662V13.0908L29.5183 11.5424C29.0343 11.2763 28.8578 10.6682 29.124 10.1843Z" fill="white"/>
<path fill-rule="evenodd" clip-rule="evenodd" d="M33.3335 22.333C33.8858 22.333 34.3335 22.7807 34.3335 23.333V27.4997C34.3335 27.8616 34.1379 28.1953 33.8221 28.3722L30.4888 30.2388C30.0069 30.5087 29.3975 30.3368 29.1277 29.8549C28.8578 29.3731 29.0297 28.7637 29.5116 28.4938L32.3335 26.9136V23.333C32.3335 22.7807 32.7812 22.333 33.3335 22.333Z" fill="white"/>
<path fill-rule="evenodd" clip-rule="evenodd" d="M15.79 32.6843C16.0561 32.2004 16.6642 32.0238 17.1481 32.29L19.9995 33.8583L22.8509 32.29C23.3349 32.0238 23.9429 32.2004 24.2091 32.6843C24.4752 33.1682 24.2987 33.7763 23.8148 34.0424L20.4815 35.8758C20.1814 36.0408 19.8177 36.0408 19.5176 35.8758L16.1843 34.0424C15.7004 33.7763 15.5238 33.1682 15.79 32.6843Z" fill="white"/>
<path fill-rule="evenodd" clip-rule="evenodd" d="M24.2097 17.6843C24.4759 18.1682 24.2994 18.7763 23.8154 19.0424L20.4821 20.8758C19.9982 21.1419 19.3901 20.9654 19.124 20.4815C18.8578 19.9975 19.0343 19.3895 19.5183 19.1233L22.8516 17.29C23.3355 17.0238 23.9436 17.2004 24.2097 17.6843Z" fill="white"/>
<path fill-rule="evenodd" clip-rule="evenodd" d="M34.2097 12.0183C34.4759 12.5022 34.2994 13.1102 33.8154 13.3764L30.4821 15.2097C29.9982 15.4759 29.3901 15.2994 29.124 14.8154C28.8578 14.3315 29.0343 13.7235 29.5183 13.4573L32.8516 11.624C33.3355 11.3578 33.9436 11.5343 34.2097 12.0183Z" fill="white"/>
<path fill-rule="evenodd" clip-rule="evenodd" d="M20 19C20.5523 19 21 19.4477 21 20V24.1667C21 24.719 20.5523 25.1667 20 25.1667C19.4477 25.1667 19 24.719 19 24.1667V20C19 19.4477 19.4477 19 20 19Z" fill="white"/>
<path fill-rule="evenodd" clip-rule="evenodd" d="M20 29.833C20.5523 29.833 21 30.2807 21 30.833V34.9997C21 35.552 20.5523 35.9997 20 35.9997C19.4477 35.9997 19 35.552 19 34.9997V30.833C19 30.2807 19.4477 29.833 20 29.833Z" fill="white"/>
<path fill-rule="evenodd" clip-rule="evenodd" d="M15.7937 17.6444C16.0635 17.1625 16.6729 16.9906 17.1548 17.2605L20.4881 19.1272C20.97 19.397 21.1419 20.0064 20.872 20.4883C20.6022 20.9701 19.9928 21.142 19.5109 20.8722L16.1776 19.0055C15.6957 18.7356 15.5238 18.1263 15.7937 17.6444Z" fill="white"/>
<path fill-rule="evenodd" clip-rule="evenodd" d="M5.78999 12.0183C6.05614 11.5343 6.6642 11.3578 7.14812 11.624L10.4815 13.4573C10.9654 13.7235 11.1419 14.3315 10.8758 14.8154C10.6096 15.2994 10.0015 15.4759 9.51762 15.2097L6.18428 13.3764C5.70036 13.1102 5.52383 12.5022 5.78999 12.0183Z" fill="white"/>
</svg>
