<svg width="20" height="20" viewBox="0 0 20 20" fill="none" xmlns="http://www.w3.org/2000/svg">
<path fill-rule="evenodd" clip-rule="evenodd" d="M3.92466 16.328C3.6513 16.0546 3.6513 15.6114 3.92466 15.338L15.5913 3.67137C15.8647 3.398 16.3079 3.398 16.5813 3.67137C16.8546 3.94473 16.8546 4.38795 16.5813 4.66132L4.91461 16.328C4.64124 16.6013 4.19803 16.6013 3.92466 16.328Z" fill="white"/>
<path fill-rule="evenodd" clip-rule="evenodd" d="M3.92299 3.67173C4.19636 3.39837 4.63958 3.39837 4.91294 3.67173L16.5796 15.3384C16.853 15.6118 16.853 16.055 16.5796 16.3284C16.3062 16.6017 15.863 16.6017 15.5897 16.3283L3.92299 4.66168C3.64963 4.38831 3.64963 3.9451 3.92299 3.67173Z" fill="white"/>
</svg>
