<svg width="34" height="34" viewBox="0 0 34 34" fill="none" xmlns="http://www.w3.org/2000/svg">
<path opacity="0.1" d="M0.849609 10.6246L4.24961 0.849609H30.5996L32.7246 10.6246H0.849609Z" fill="white"/>
<path d="M4.40634 9.43537e-06C4.03572 0.0339094 3.69481 0.292756 3.56259 0.640634L0.0625862 10.1563C0.0218492 10.266 0.000586709 10.3829 8.62092e-05 10.5V16C-0.00738379 16.5283 0.471723 17.0142 1.00009 17.0142C1.52845 17.0142 2.00755 16.5283 2.00009 16V11.5H32.0001V32H2.00009V22H8.50008C9.02839 22.0075 9.51432 21.5284 9.51432 21C9.51432 20.4716 9.02839 19.9925 8.50008 20H1.00009C0.476502 20.0001 0.000138709 20.4764 8.62092e-05 21V33C0.000138709 33.5236 0.476502 33.9999 1.00009 34H33.0001C33.5237 33.9999 34 33.5236 34.0001 33V10.5C34.0002 10.4158 33.9897 10.3316 33.9688 10.25L31.4688 0.734384C31.3531 0.314503 30.9356 -0.00199156 30.5001 9.43537e-06C21.8042 9.43537e-06 13.0955 9.43537e-06 4.40634 9.43537e-06ZM5.20321 2.00001H15.5001V9.50001H2.43759L5.20321 2.00001ZM17.5001 2.00001H29.7345L31.7032 9.50001H17.5001V2.00001ZM15.3595 16.5C14.8843 16.5675 14.4954 17.0201 14.5001 17.5V20C13.807 20 13.0917 20 12.4063 20C11.8827 20.0244 11.4285 20.5232 11.453 21.0469C11.4776 21.5706 11.9764 22.0247 12.5001 22H14.5001V24.5C14.5027 25.2091 15.4305 25.7204 16.0313 25.3438L21.5313 21.8438C22.0961 21.4843 22.0961 20.5157 21.5313 20.1563L16.0313 16.6563C15.835 16.5275 15.5924 16.4711 15.3595 16.5ZM16.5001 19.3125L19.1407 21L16.5001 22.6875V19.3125Z" fill="white"/>
</svg>
