<svg width="40" height="40" viewBox="0 0 40 40" fill="none" xmlns="http://www.w3.org/2000/svg">
<path opacity="0.1" d="M25.4067 35.61C25.0717 35.9451 24.6741 36.2109 24.2364 36.3922C23.7987 36.5736 23.3296 36.6669 22.8558 36.6669C22.3821 36.6669 21.913 36.5736 21.4753 36.3922C21.0376 36.2109 20.6399 35.9451 20.305 35.61L6.05667 21.3617C5.38025 20.6854 5.00016 19.7682 5 18.8117V8.605C5 6.61667 6.61667 5 8.60667 5H18.8117C19.7667 5 20.685 5.38 21.3617 6.05667L35.61 20.305C35.9451 20.6399 36.2109 21.0376 36.3922 21.4753C36.5736 21.913 36.6669 22.3821 36.6669 22.8558C36.6669 23.3296 36.5736 23.7987 36.3922 24.2364C36.2109 24.6741 35.9451 25.0717 35.61 25.4067L25.4067 35.61Z" fill="white"/>
<path fill-rule="evenodd" clip-rule="evenodd" d="M8.6446 6C7.18566 6 6 7.18626 6 8.64292V18.9568C6 18.9567 6 18.9568 6 18.9568C6.00016 19.6581 6.27886 20.3308 6.77481 20.8266L21.1731 35.2249C21.4187 35.4706 21.7104 35.6656 22.0314 35.7986C22.3523 35.9316 22.6963 36 23.0437 36C23.391 36 23.735 35.9316 24.056 35.7986C24.3769 35.6656 24.6685 35.4707 24.9141 35.225L35.2249 24.9142C35.4706 24.6686 35.6656 24.3769 35.7986 24.056C35.9316 23.735 36 23.391 36 23.0437C36 22.6963 35.9316 22.3523 35.7986 22.0314C35.6656 21.7104 35.4707 21.4188 35.225 21.1732L20.8267 6.77489C20.3304 6.27863 19.6568 6 18.9569 6H8.6446ZM4 8.64292C4 6.08109 6.08169 4 8.6446 4H18.9569C20.1872 4 21.3696 4.48936 22.2409 5.36067L36.6389 19.7587C37.0704 20.1901 37.4127 20.7022 37.6463 21.2658C37.8798 21.8294 38 22.4336 38 23.0437C38 23.6538 37.8798 24.2579 37.6463 24.8215C37.4127 25.3852 37.0704 25.8973 36.6389 26.3286L26.3286 36.6389C25.8973 37.0704 25.3852 37.4127 24.8215 37.6463C24.2579 37.8798 23.6538 38 23.0437 38C22.4336 38 21.8294 37.8798 21.2658 37.6463C20.7022 37.4127 20.1901 37.0704 19.7587 36.6389L5.36076 22.241C4.48968 21.3701 4.0002 20.1889 4 18.9571V8.64292Z" fill="white"/>
<path fill-rule="evenodd" clip-rule="evenodd" d="M10.1249 10.1259C10.5154 9.73538 11.1486 9.73538 11.5391 10.1259L12.3725 10.9592C12.763 11.3498 12.763 11.9829 12.3725 12.3734C11.9819 12.764 11.3488 12.764 10.9583 12.3734L10.1249 11.5401C9.7344 11.1496 9.7344 10.5164 10.1249 10.1259Z" fill="white"/>
</svg>
