<svg width="40" height="40" viewBox="0 0 40 40" fill="none" xmlns="http://www.w3.org/2000/svg">
<path opacity="0.1" d="M6.66797 31.667L13.3346 21.667L20.0013 25.0003L26.668 16.667L33.3346 23.3337V31.667H6.66797Z" fill="white"/>
<path fill-rule="evenodd" clip-rule="evenodd" d="M26.6127 15.6685C26.8967 15.6528 27.1739 15.7588 27.3751 15.9599L34.0417 22.6266C34.2293 22.8141 34.3346 23.0684 34.3346 23.3337V31.667C34.3346 32.2193 33.8869 32.667 33.3346 32.667H6.66797C6.29917 32.667 5.96031 32.464 5.7863 32.1389C5.61228 31.8137 5.63135 31.4191 5.83592 31.1123L12.5026 21.1123C12.7823 20.6927 13.3308 20.547 13.7819 20.7726L19.7254 23.7444L25.8871 16.0423C26.0648 15.8202 26.3287 15.6843 26.6127 15.6685ZM26.7509 18.1641L20.7822 25.625C20.4876 25.9932 19.9758 26.1056 19.5541 25.8948L13.677 22.9562L8.53649 30.667H32.3346V23.7479L26.7509 18.1641Z" fill="white"/>
<path fill-rule="evenodd" clip-rule="evenodd" d="M26.6227 5.66802C26.9034 5.65529 27.1765 5.76122 27.3751 5.95989L34.0418 12.6266C34.4323 13.0171 34.4323 13.6502 34.0418 14.0408C33.6513 14.4313 33.0181 14.4313 32.6276 14.0408L26.7352 8.14841L19.1029 17.3072C18.8058 17.6637 18.3025 17.769 17.8875 17.5614L11.9673 14.6013L7.46803 20.6003C7.13666 21.0422 6.50986 21.1317 6.06803 20.8003C5.6262 20.469 5.53666 19.8422 5.86803 19.4003L10.868 12.7337C11.158 12.347 11.683 12.2231 12.1152 12.4392L18.0735 15.4184L25.8998 6.02681C26.0797 5.81097 26.342 5.68075 26.6227 5.66802Z" fill="white"/>
</svg>
