<svg width="40" height="40" viewBox="0 0 40 40" fill="none" xmlns="http://www.w3.org/2000/svg">
<path opacity="0.1" d="M16.6654 36.6663H23.332H16.6654ZM8.33203 14.9997C8.33203 8.55636 13.5554 3.33301 19.9987 3.33301C26.442 3.33301 31.6654 8.55636 31.6654 14.9997C31.6654 18.9642 29.6879 22.4487 26.6654 24.557L25.7624 28.8337C25.5149 30.4627 24.1145 31.6663 22.4669 31.6663H17.5305C15.8829 31.6663 14.4825 30.4627 14.235 28.8337L13.332 24.5752C10.3096 22.467 8.33203 18.9642 8.33203 14.9997Z" fill="white"/>
<path fill-rule="evenodd" clip-rule="evenodd" d="M19.9987 4.33301C14.1077 4.33301 9.33203 9.10864 9.33203 14.9997C9.33203 18.6235 11.1383 21.8258 13.9041 23.755C14.1124 23.9003 14.2576 24.1193 14.3103 24.3678L15.2132 28.6262C15.2173 28.6452 15.2207 28.6643 15.2236 28.6835C15.3969 29.8238 16.3772 30.6663 17.5305 30.6663H22.4669C23.6202 30.6663 24.6005 29.8238 24.7737 28.6835C24.7766 28.6646 24.78 28.6458 24.7839 28.6271L25.6869 24.3504C25.7395 24.1017 25.8847 23.8823 26.0933 23.7368C28.8606 21.8065 30.6654 18.6218 30.6654 14.9997C30.6654 9.10864 25.8897 4.33301 19.9987 4.33301ZM7.33203 14.9997C7.33203 8.00407 13.0031 2.33301 19.9987 2.33301C26.9943 2.33301 32.6654 8.00407 32.6654 14.9997C32.6654 19.1619 30.6572 22.836 27.564 25.1417L26.7463 29.014C26.412 31.1164 24.5987 32.6663 22.4669 32.6663H17.5305C15.399 32.6663 13.5856 31.1166 13.2511 29.0145L12.4338 25.1601C9.3391 22.8525 7.33203 19.1604 7.33203 14.9997ZM15.6654 36.6663C15.6654 36.1141 16.1131 35.6663 16.6654 35.6663H23.332C23.8843 35.6663 24.332 36.1141 24.332 36.6663C24.332 37.2186 23.8843 37.6663 23.332 37.6663H16.6654C16.1131 37.6663 15.6654 37.2186 15.6654 36.6663Z" fill="white"/>
</svg>
