<svg width="20" height="20" viewBox="0 0 20 20" fill="none" xmlns="http://www.w3.org/2000/svg">
<path fill-rule="evenodd" clip-rule="evenodd" d="M3.33307 3.93438C2.74397 3.93438 2.26641 4.41194 2.26641 5.00104V15.001C2.26641 15.5902 2.74396 16.0677 3.33307 16.0677H16.6664C17.2555 16.0677 17.7331 15.5902 17.7331 15.001V5.00104C17.7331 4.41193 17.2555 3.93438 16.6664 3.93438H3.33307ZM1.06641 5.00104C1.06641 3.7492 2.08123 2.73438 3.33307 2.73438H16.6664C17.9183 2.73438 18.9331 3.7492 18.9331 5.00104V15.001C18.9331 16.2529 17.9183 17.2677 16.6664 17.2677H3.33307C2.08123 17.2677 1.06641 16.2529 1.06641 15.001V5.00104Z" fill="#111111"/>
<path fill-rule="evenodd" clip-rule="evenodd" d="M7.38701 9.3138L2.10156 4.61564L2.8988 3.71875L8.18426 8.41692L8.18426 8.41692C9.21988 9.33751 10.7805 9.33752 11.8161 8.41692L17.1016 3.71875L17.8988 4.61564L12.6134 9.31381C11.1231 10.6385 8.87732 10.6386 7.38702 9.31381C7.38702 9.31381 7.38702 9.3138 7.38701 9.3138Z" fill="#111111"/>
</svg>
