<svg width="40" height="40" viewBox="0 0 40 40" fill="none" xmlns="http://www.w3.org/2000/svg">
<ellipse opacity="0.1" cx="20.5" cy="20" rx="15.5" ry="16" fill="white"/>
<path fill-rule="evenodd" clip-rule="evenodd" d="M2.04109 5.00272C1.77215 5.02262 1.5194 5.13995 1.32946 5.33309C1.22537 5.43785 1.14279 5.5623 1.08645 5.69931C1.0301 5.83632 1.0011 5.9832 1.0011 6.13154C1.0011 6.27988 1.0301 6.42676 1.08645 6.56377C1.14279 6.70078 1.22537 6.82523 1.32946 6.92999L3.7765 9.39911L1.32946 11.866C1.22504 11.9708 1.14219 12.0954 1.08565 12.2326C1.02911 12.3698 1 12.517 1 12.6656C1 12.8142 1.02911 12.9613 1.08565 13.0985C1.14219 13.2357 1.22504 13.3603 1.32946 13.4651C1.43328 13.5702 1.55661 13.6535 1.6924 13.7103C1.82819 13.7672 1.97375 13.7965 2.12077 13.7965C2.26778 13.7965 2.41335 13.7672 2.54913 13.7103C2.68492 13.6535 2.80825 13.5702 2.91208 13.4651L5.35694 10.9938L7.80616 13.4651C8.01548 13.6746 8.29833 13.7921 8.59311 13.7921C8.88788 13.7921 9.17073 13.6746 9.38005 13.4651C9.48446 13.3603 9.56732 13.2357 9.62386 13.0985C9.6804 12.9613 9.70951 12.8142 9.70951 12.6656C9.70951 12.517 9.6804 12.3698 9.62386 12.2326C9.56732 12.0954 9.48446 11.9708 9.38005 11.866L6.93737 9.39913L9.38005 6.93001C9.48413 6.82525 9.56672 6.7008 9.62306 6.56379C9.67941 6.42678 9.70841 6.2799 9.70841 6.13156C9.70841 5.98322 9.67941 5.83634 9.62306 5.69933C9.56672 5.56232 9.48413 5.43787 9.38005 5.33311C9.17073 5.12369 8.88788 5.00618 8.59311 5.00618C8.29833 5.00618 8.01548 5.12369 7.80616 5.33311L5.35694 7.80225L2.91208 5.33311C2.79894 5.21815 2.66258 5.12913 2.51228 5.07212C2.36198 5.01511 2.20127 4.99143 2.04109 5.00272ZM22.9228 5.66131C22.7631 5.66767 22.6067 5.70851 22.4639 5.78109C22.3212 5.85366 22.1956 5.95627 22.0955 6.082C22.0029 6.19766 21.9339 6.33065 21.8924 6.47332C21.851 6.61599 21.8379 6.76553 21.8539 6.91333C21.8699 7.06113 21.9148 7.20427 21.9858 7.33452C22.0569 7.46477 22.1528 7.57956 22.268 7.67227L24.5404 9.50925C15.1856 11.0069 7.96017 18.8194 7.34121 28.4693C5.48711 28.9479 4.10176 30.6502 4.10176 32.6631C4.10176 35.044 6.04038 37 8.39991 37C10.7595 37 12.6893 35.044 12.6893 32.6631C12.6893 30.6955 11.3703 29.0236 9.58087 28.5023C10.1801 19.9436 16.574 13.0592 24.8918 11.7339L22.8377 14.0642C22.6409 14.2873 22.5398 14.5799 22.5566 14.8781C22.5734 15.1762 22.7067 15.4554 22.9272 15.6545C23.1482 15.8531 23.4383 15.9551 23.7337 15.9381C24.0292 15.9212 24.3059 15.7867 24.5033 15.5642L28.3408 11.2097C28.4422 11.0955 28.5194 10.9617 28.5677 10.8164C28.6161 10.6711 28.6346 10.5174 28.6222 10.3647C28.6097 10.212 28.5665 10.0634 28.4953 9.92805C28.424 9.79271 28.3261 9.67345 28.2077 9.57754L23.6628 5.90579C23.4532 5.73743 23.1906 5.65066 22.9228 5.66131ZM34.7106 6.18113C32.351 6.18113 30.4102 8.12826 30.4102 10.5093C30.4102 12.8902 32.351 14.8484 34.7106 14.8484C37.0701 14.8484 39 12.8902 39 10.5093C39 8.12826 37.0701 6.18113 34.7106 6.18113ZM34.7106 8.4366C35.8617 8.4366 36.7647 9.34685 36.7647 10.5093C36.7647 11.6716 35.8617 12.5907 34.7106 12.5907C33.5594 12.5907 32.6477 11.6716 32.6477 10.5093C32.6477 9.34685 33.5594 8.4366 34.7106 8.4366ZM18.8386 21.095C18.57 21.1143 18.3173 21.2308 18.127 21.4232C18.0226 21.528 17.9397 21.6526 17.8832 21.7898C17.8266 21.927 17.7975 22.0741 17.7975 22.2227C17.7975 22.3713 17.8266 22.5185 17.8832 22.6557C17.9397 22.7929 18.0226 22.9175 18.127 23.0223L20.5718 25.4914L18.127 27.9583C18.0226 28.0631 17.9397 28.1877 17.8832 28.3249C17.8266 28.4621 17.7975 28.6093 17.7975 28.7579C17.7975 28.9065 17.8266 29.0536 17.8832 29.1908C17.9397 29.328 18.0226 29.4526 18.127 29.5574C18.2308 29.6624 18.3541 29.7458 18.4899 29.8026C18.6257 29.8595 18.7713 29.8887 18.9183 29.8887C19.0653 29.8887 19.2109 29.8595 19.3466 29.8026C19.4824 29.7458 19.6058 29.6624 19.7096 29.5574L22.1566 27.0883L24.6037 29.5574C24.7075 29.6624 24.8308 29.7458 24.9666 29.8026C25.1024 29.8595 25.248 29.8887 25.395 29.8887C25.542 29.8887 25.6876 29.8595 25.8234 29.8026C25.9591 29.7458 26.0825 29.6624 26.1863 29.5574C26.2907 29.4526 26.3736 29.328 26.4301 29.1908C26.4866 29.0536 26.5157 28.9065 26.5157 28.7579C26.5157 28.6093 26.4866 28.4621 26.4301 28.3249C26.3736 28.1877 26.2907 28.0631 26.1863 27.9583L23.7414 25.4914L26.1863 23.0223C26.2907 22.9175 26.3736 22.7929 26.4301 22.6557C26.4866 22.5185 26.5157 22.3713 26.5157 22.2227C26.5157 22.0741 26.4866 21.927 26.4301 21.7898C26.3736 21.6526 26.2907 21.528 26.1863 21.4232C26.0825 21.3181 25.9591 21.2348 25.8234 21.178C25.6876 21.1211 25.542 21.0919 25.395 21.0919C25.248 21.0919 25.1024 21.1211 24.9666 21.178C24.8308 21.2348 24.7075 21.3181 24.6037 21.4232L22.1566 23.8923L19.7096 21.4232C19.5963 21.3086 19.4598 21.22 19.3095 21.1634C19.1592 21.1067 18.9986 21.0834 18.8386 21.095ZM8.39991 30.5904C9.55105 30.5904 10.4628 31.5007 10.4628 32.6631C10.4628 33.8255 9.55105 34.7445 8.39991 34.7445C7.24879 34.7445 6.33706 33.8255 6.33706 32.6631C6.33706 31.5007 7.24879 30.5904 8.39991 30.5904Z" fill="white"/>
</svg>
