<svg width="24" height="24" viewBox="0 0 24 24" fill="none" xmlns="http://www.w3.org/2000/svg">
<path fill-rule="evenodd" clip-rule="evenodd" d="M17.5058 7.50581C17.7792 7.23244 18.2224 7.23244 18.4958 7.50581L22.4958 11.5058C22.7691 11.7792 22.7691 12.2224 22.4958 12.4958L18.4958 16.4958C18.2224 16.7691 17.7792 16.7691 17.5058 16.4958C17.2324 16.2224 17.2324 15.7792 17.5058 15.5058L21.0108 12.0008L17.5058 8.49576C17.2324 8.22239 17.2324 7.77917 17.5058 7.50581Z" fill="#003CFD"/>
<path fill-rule="evenodd" clip-rule="evenodd" d="M6.49576 7.50581C6.76912 7.77917 6.76912 8.22239 6.49576 8.49576L2.99073 12.0008L6.49576 15.5058C6.76912 15.7792 6.76912 16.2224 6.49576 16.4958C6.22239 16.7691 5.77917 16.7691 5.50581 16.4958L1.50581 12.4958C1.37453 12.3645 1.30078 12.1864 1.30078 12.0008C1.30078 11.8151 1.37453 11.6371 1.50581 11.5058L5.50581 7.50581C5.77917 7.23244 6.22239 7.23244 6.49576 7.50581Z" fill="#003CFD"/>
</svg>
