<svg width="40" height="40" viewBox="0 0 40 40" fill="none" xmlns="http://www.w3.org/2000/svg">
<path fill-rule="evenodd" clip-rule="evenodd" d="M9.9987 4.33301C6.86908 4.33301 4.33203 6.87006 4.33203 9.99967V17.333H35.6654V9.99967C35.6654 6.87007 33.1283 4.33301 29.9987 4.33301H9.9987ZM2.33203 9.99967C2.33203 5.76549 5.76451 2.33301 9.9987 2.33301H29.9987C34.2328 2.33301 37.6654 5.76548 37.6654 9.99967V18.333C37.6654 18.8853 37.2176 19.333 36.6654 19.333H3.33203C2.77975 19.333 2.33203 18.8853 2.33203 18.333V9.99967Z" fill="white"/>
<path opacity="0.1" d="M3.33398 9.99967C3.33398 6.31777 6.31875 3.33301 10.0007 3.33301H30.0007C33.6825 3.33301 36.6673 6.31777 36.6673 9.99967V18.333H3.33398V9.99967Z" fill="white"/>
<path fill-rule="evenodd" clip-rule="evenodd" d="M24.832 27.5C24.832 26.9477 25.2797 26.5 25.832 26.5H30.832C31.3843 26.5 31.832 26.9477 31.832 27.5C31.832 28.0523 31.3843 28.5 30.832 28.5H25.832C25.2797 28.5 24.832 28.0523 24.832 27.5Z" fill="white"/>
<path fill-rule="evenodd" clip-rule="evenodd" d="M19 18.333C19 17.7807 19.4477 17.333 20 17.333H36.6667C37.219 17.333 37.6667 17.7807 37.6667 18.333V29.9997C37.6667 34.2338 34.2341 37.6663 30 37.6663H20C19.4477 37.6663 19 37.2186 19 36.6663V18.333ZM21 19.333V35.6663H30C33.1295 35.6663 35.6667 33.1292 35.6667 29.9997V19.333H21Z" fill="white"/>
<path fill-rule="evenodd" clip-rule="evenodd" d="M2.33203 18.333C2.33203 17.7807 2.77975 17.333 3.33203 17.333H19.9987C20.551 17.333 20.9987 17.7807 20.9987 18.333V36.6663C20.9987 37.2186 20.551 37.6663 19.9987 37.6663H9.9987C5.76451 37.6663 2.33203 34.2338 2.33203 29.9997V18.333ZM4.33203 19.333V29.9997C4.33203 33.1292 6.86909 35.6663 9.9987 35.6663H18.9987V19.333H4.33203Z" fill="white"/>
<path fill-rule="evenodd" clip-rule="evenodd" d="M8.46088 24.2929C8.85141 23.9024 9.48457 23.9024 9.87509 24.2929L11.668 26.0858L13.4608 24.2929C13.8514 23.9024 14.4845 23.9024 14.8751 24.2929C15.2656 24.6834 15.2656 25.3166 14.8751 25.7071L13.0822 27.5L14.8751 29.2929C15.2656 29.6834 15.2656 30.3166 14.8751 30.7071C14.4846 31.0976 13.8514 31.0976 13.4609 30.7071L11.668 28.9142L9.87508 30.7071C9.48455 31.0976 8.85139 31.0976 8.46086 30.7071C8.07034 30.3166 8.07034 29.6834 8.46086 29.2929L10.2538 27.5L8.46088 25.7071C8.07035 25.3166 8.07036 24.6834 8.46088 24.2929Z" fill="white"/>
</svg>
