<svg width="40" height="40" viewBox="0 0 40 40" fill="none" xmlns="http://www.w3.org/2000/svg">
<path opacity="0.1" d="M35 20C35 28.2843 28.2843 35 20 35C11.7157 35 5 28.2843 5 20C5 11.7157 11.7157 5 20 5C28.2843 5 35 11.7157 35 20Z" fill="white"/>
<path fill-rule="evenodd" clip-rule="evenodd" d="M12.3738 12.6259C12.7643 13.0164 12.7643 13.6496 12.3738 14.0401L6.41421 19.9997L12.3738 25.9592C12.7643 26.3498 12.7643 26.9829 12.3738 27.3734C11.9832 27.764 11.3501 27.764 10.9596 27.3734L4.29289 20.7068C3.90237 20.3163 3.90237 19.6831 4.29289 19.2926L10.9596 12.6259C11.3501 12.2354 11.9832 12.2354 12.3738 12.6259Z" fill="white"/>
<path fill-rule="evenodd" clip-rule="evenodd" d="M27.6249 12.6259C28.0154 12.2354 28.6486 12.2354 29.0391 12.6259L35.7058 19.2926C36.0963 19.6831 36.0963 20.3163 35.7058 20.7068L29.0391 27.3734C28.6486 27.764 28.0154 27.764 27.6249 27.3734C27.2344 26.9829 27.2344 26.3498 27.6249 25.9592L33.5845 19.9997L27.6249 14.0401C27.2344 13.6496 27.2344 13.0164 27.6249 12.6259Z" fill="white"/>
<path fill-rule="evenodd" clip-rule="evenodd" d="M23.5755 5.69611C24.1112 5.83006 24.437 6.37299 24.3031 6.90879L17.6364 33.5755C17.5024 34.1112 16.9595 34.437 16.4237 34.3031C15.8879 34.1691 15.5622 33.6262 15.6961 33.0904L22.3628 6.42372C22.4967 5.88792 23.0397 5.56216 23.5755 5.69611Z" fill="white"/>
</svg>
