<svg width="310" height="40" viewBox="0 0 310 40" fill="none" xmlns="http://www.w3.org/2000/svg">
<path d="M59.276 24.3891L55.8475 31.381H53.375L64.8822 8.46777H68.0833L79.5779 31.381H77.1223L73.6811 24.3891L72.8176 22.6159L66.7355 10.2705H66.2216L60.1563 22.6159" fill="#0766D1"/>
<path d="M101.664 25.1131C101.664 26.204 101.42 27.1686 100.927 28.0026C100.438 28.8365 99.722 29.5357 98.7869 30.1043C97.8519 30.6687 96.6978 31.0984 95.3289 31.3848C93.96 31.6754 92.3931 31.8186 90.6367 31.8186C88.7666 31.8186 87.1155 31.6291 85.6876 31.2416C84.2555 30.8583 83.0593 30.3318 82.0948 29.6663C81.1302 29.0008 80.4015 28.2132 79.9129 27.3076C79.4244 26.402 79.1758 25.4332 79.1758 24.4055H82.4654C82.4528 24.7467 82.5033 25.1089 82.6086 25.488C82.7139 25.8671 82.8908 26.2419 83.1393 26.6084C83.3878 26.9748 83.7164 27.3286 84.125 27.6529C84.5335 27.9815 85.0432 28.2721 85.6497 28.5248C86.2562 28.7776 86.9723 28.9797 87.7978 29.1314C88.6191 29.283 89.5753 29.3588 90.6578 29.3588C91.9424 29.3588 93.0544 29.2619 94.0021 29.064C94.9498 28.866 95.7332 28.588 96.3524 28.23C96.9758 27.872 97.4391 27.4381 97.7381 26.9327C98.0414 26.4273 98.193 25.8629 98.193 25.2353C98.193 24.6498 98.0709 24.1444 97.8308 23.7274C97.5865 23.3062 97.2327 22.9481 96.7694 22.6491C96.3061 22.35 95.7374 22.1057 95.0719 21.912C94.4064 21.7224 93.6483 21.554 92.7975 21.4108L86.9007 20.4546C85.7676 20.2651 84.7652 20.0082 83.8975 19.6965C83.0298 19.3848 82.2969 18.9847 81.7073 18.5003C81.1176 18.0159 80.6711 17.4388 80.3678 16.7733C80.0646 16.1078 79.9129 15.3244 79.9129 14.423C79.9129 13.6143 80.0941 12.8267 80.4521 12.0559C80.8101 11.2893 81.404 10.6027 82.2253 10.0004C83.0467 9.39809 84.1292 8.91791 85.4644 8.55147C86.7996 8.18924 88.4338 8.00391 90.3756 8.00391C92.2583 8.00391 93.8715 8.1766 95.2194 8.51777C96.5672 8.86316 97.6918 9.34754 98.5848 9.97513C99.4777 10.6027 100.156 11.3524 100.615 12.2285C101.074 13.1046 101.357 14.065 101.458 15.118H98.3489C98.2562 14.4693 98.0667 13.867 97.7803 13.3068C97.4896 12.7466 97.0432 12.2538 96.4366 11.8368C95.8301 11.4198 95.0382 11.0871 94.0569 10.8428C93.0755 10.5985 91.854 10.4806 90.3882 10.4806C89.0024 10.4806 87.861 10.6027 86.9596 10.8512C86.0583 11.0997 85.3464 11.4114 84.8157 11.7905C84.285 12.1696 83.9143 12.5908 83.6995 13.0583C83.4889 13.5258 83.3794 13.9681 83.3794 14.3935C83.3794 14.9411 83.4763 15.4128 83.6743 15.813C83.8722 16.2131 84.1671 16.5543 84.5672 16.8449C84.9673 17.1313 85.4728 17.3756 86.0835 17.5736C86.6943 17.7715 87.4145 17.9316 88.2443 18.0496L94.1579 18.9594C95.3204 19.1531 96.3692 19.4059 97.2959 19.7175C98.2225 20.0292 99.0144 20.4336 99.663 20.9222C100.312 21.4108 100.805 22.0004 101.15 22.6828C101.491 23.3609 101.664 24.1738 101.664 25.1131Z" fill="#0766D1"/>
<path d="M126.182 25.0081C126.182 26.12 125.934 27.1014 125.441 27.9523C124.944 28.7989 124.219 29.5149 123.263 30.092C122.307 30.669 121.128 31.1028 119.721 31.3977C118.318 31.6925 116.709 31.8399 114.898 31.8399C112.986 31.8399 111.305 31.642 109.857 31.246C108.403 30.8501 107.186 30.3152 106.201 29.6329C105.215 28.9505 104.474 28.1502 103.972 27.232C103.471 26.3138 103.223 25.3198 103.223 24.2583H107.346C107.346 24.5827 107.397 24.9196 107.498 25.2734C107.599 25.6272 107.763 25.9726 107.991 26.3096C108.218 26.6465 108.517 26.9709 108.892 27.2741C109.267 27.5774 109.734 27.8428 110.295 28.0702C110.855 28.2977 111.516 28.4788 112.283 28.6178C113.045 28.7525 113.93 28.8199 114.928 28.8199C116.12 28.8199 117.152 28.7315 118.019 28.5546C118.891 28.3777 119.603 28.1292 120.168 27.8048C120.732 27.4805 121.145 27.093 121.41 26.6423C121.68 26.1916 121.81 25.6988 121.81 25.1639C121.81 24.6501 121.705 24.2078 121.49 23.8371C121.279 23.4665 120.964 23.1506 120.551 22.881C120.138 22.6157 119.624 22.3924 119.018 22.2155C118.411 22.0386 117.716 21.8828 116.941 21.7522L110.922 20.7371C108.589 20.3328 106.837 19.6378 105.674 18.6522C104.511 17.6665 103.93 16.2892 103.93 14.5202C103.93 13.7031 104.111 12.8986 104.478 12.1151C104.844 11.3317 105.442 10.6325 106.276 10.0218C107.11 9.41102 108.21 8.92243 109.574 8.55177C110.939 8.18112 112.624 8 114.625 8C116.545 8 118.196 8.18112 119.578 8.53914C120.959 8.89716 122.101 9.39838 123.011 10.0386C123.92 10.6788 124.611 11.4454 125.083 12.3341C125.55 13.2229 125.833 14.2001 125.925 15.2615H122.042C121.949 14.6634 121.772 14.1074 121.503 13.5935C121.237 13.0797 120.82 12.629 120.26 12.2457C119.7 11.8624 118.967 11.5591 118.062 11.3443C117.156 11.1253 116.023 11.02 114.658 11.02C113.403 11.02 112.367 11.1295 111.55 11.3443C110.733 11.5634 110.084 11.8413 109.608 12.1867C109.132 12.5321 108.799 12.907 108.606 13.3155C108.412 13.7241 108.319 14.12 108.319 14.5075C108.319 14.9835 108.403 15.3963 108.576 15.7501C108.749 16.1039 109.014 16.4114 109.381 16.6767C109.743 16.9379 110.206 17.1611 110.766 17.338C111.327 17.5149 111.996 17.6623 112.775 17.7845L118.567 18.7238C119.801 18.9344 120.888 19.2081 121.835 19.5409C122.779 19.8736 123.575 20.2906 124.224 20.7919C124.872 21.2931 125.357 21.8912 125.685 22.582C126.018 23.2685 126.182 24.0772 126.182 25.0081Z" fill="#0766D1"/>
<path d="M154.19 8.43359V21.6425C154.19 22.9988 153.967 24.2918 153.524 25.526C153.082 26.7601 152.358 27.8468 151.355 28.786C150.353 29.7253 149.047 30.4751 147.434 31.031C145.821 31.587 143.849 31.865 141.512 31.865C139.915 31.865 138.492 31.7387 137.241 31.4859C135.994 31.2332 134.899 30.8794 133.964 30.4245C133.029 29.9696 132.237 29.4263 131.584 28.7945C130.931 28.1627 130.405 27.4677 130.009 26.7095C129.609 25.9514 129.318 25.1469 129.137 24.2918C128.956 23.4368 128.863 22.5607 128.863 21.6593V8.4378H134.322V21.6593C134.322 22.5481 134.457 23.3778 134.722 24.1402C134.987 24.9026 135.413 25.5639 135.99 26.1241C136.567 26.6843 137.312 27.1265 138.226 27.4508C139.14 27.7752 140.244 27.9352 141.541 27.9352C142.876 27.9352 144.001 27.7709 144.915 27.4424C145.829 27.1139 146.57 26.6632 147.135 26.0946C147.699 25.5217 148.112 24.852 148.365 24.0854C148.617 23.3189 148.744 22.4975 148.744 21.6298V8.4378H154.19V8.43359Z" fill="#0766D1"/>
<path d="M183.21 16.866C183.21 18.1212 182.99 19.2248 182.548 20.1851C182.11 21.1455 181.474 21.95 180.644 22.6028C179.815 23.2557 178.808 23.7485 177.62 24.0812C176.432 24.414 175.089 24.5825 173.594 24.5825H165.178V31.3764H158.523V8.43359H173.429C174.937 8.43359 176.293 8.59365 177.502 8.91798C178.711 9.24231 179.735 9.70983 180.581 10.3206C181.424 10.9313 182.076 11.681 182.531 12.574C182.986 13.4627 183.214 14.4694 183.214 15.5898V16.866H183.21ZM176.445 16.0447C176.445 15.0338 176.138 14.2967 175.527 13.8376C174.916 13.3785 173.956 13.1468 172.654 13.1468H165.195V19.8777H172.427C173.733 19.8777 174.727 19.6207 175.413 19.1026C176.1 18.5888 176.445 17.7969 176.445 16.7355V16.0447Z" fill="#0766D1"/>
<path d="M211.698 17.2156C211.698 18.5213 211.463 19.6712 210.995 20.6652C210.523 21.6593 209.862 22.4933 208.999 23.1587C208.139 23.8285 207.112 24.3339 205.92 24.6751C204.728 25.0205 203.401 25.1931 201.948 25.1931H193.958V31.3806H185.828V8.4209H201.615C203.123 8.4209 204.492 8.58938 205.73 8.92213C206.968 9.25488 208.03 9.73926 208.914 10.3795C209.799 11.0155 210.485 11.7905 210.97 12.7087C211.454 13.6227 211.698 14.6631 211.698 15.8256V17.2156ZM203.43 16.3942C203.43 15.9478 203.363 15.5813 203.228 15.2865C203.093 14.9916 202.904 14.76 202.66 14.5873C202.415 14.4146 202.12 14.2924 201.771 14.225C201.421 14.1534 201.034 14.1197 200.612 14.1197H193.97V19.5027H200.444C200.836 19.5027 201.215 19.4564 201.573 19.3679C201.931 19.2753 202.251 19.1321 202.529 18.9341C202.807 18.7361 203.026 18.4834 203.19 18.1759C203.355 17.8684 203.435 17.4978 203.435 17.0597V16.3942H203.43Z" fill="#0766D1"/>
<path d="M213.801 31.3766V8.43384L223.611 8.41699V25.265H234.954V31.3766H213.801Z" fill="#0766D1"/>
<path d="M249.738 23.4749V31.3766H239.928V23.4749L229.285 8.41699H240.354L244.856 17.0895L249.3 8.41699H260.369L249.738 23.4749Z" fill="#0766D1"/>
<path d="M53.8268 24.3885L50.3982 31.3804H47.9258L59.433 8.4671H61.6948" fill="#0766D1"/>
<path d="M11.166 20.2911H25.2383L25.2215 21.2177C25.2215 21.3904 25.2215 21.5463 25.2215 21.6852C25.2215 21.8285 25.2173 21.959 25.2046 22.0854C25.1962 22.2117 25.1836 22.3423 25.1751 22.4813C25.1667 22.6161 25.1541 22.7677 25.1457 22.9278C25.0362 23.5764 24.8508 24.2461 24.5939 24.9369C24.337 25.6277 23.9916 26.3058 23.5535 26.9629C23.1197 27.62 22.5848 28.2391 21.9445 28.8204C21.3085 29.4016 20.5504 29.9113 19.6785 30.3451C18.8024 30.779 17.8041 31.1244 16.6753 31.3855C15.5465 31.6424 14.2787 31.773 12.8592 31.773C11.2124 31.773 9.74658 31.6172 8.47034 31.3097C7.18989 31.0022 6.07792 30.581 5.12601 30.0461C4.1741 29.5112 3.37381 28.8794 2.72095 28.1591C2.06809 27.4346 1.54159 26.6638 1.13724 25.8467C0.732887 25.0296 0.442256 24.1788 0.265352 23.2984C0.0884477 22.4181 0 21.5505 0 20.6912V19.158C0 18.2777 0.0926633 17.3974 0.282204 16.5129C0.467532 15.6284 0.770796 14.7775 1.18357 13.9562C1.59635 13.1348 2.1397 12.3725 2.8052 11.6606C3.47069 10.9488 4.2794 10.3296 5.23131 9.80315C6.18322 9.27665 7.28677 8.85966 8.55037 8.55218C9.81397 8.24471 11.2545 8.08887 12.8719 8.08887C14.742 8.08887 16.3889 8.3121 17.8168 8.75436C19.2404 9.20083 20.4577 9.81158 21.4644 10.5908C22.471 11.37 23.2713 12.2882 23.8694 13.3412C24.4675 14.3984 24.8803 15.5357 25.112 16.7614L24.0211 16.7782C23.7894 15.5062 23.3514 14.3858 22.7111 13.4255C22.0667 12.4651 21.2622 11.6606 20.2934 11.0162C19.3247 10.3676 18.2085 9.88318 16.9491 9.55886C15.6897 9.23453 14.3292 9.07448 12.8635 9.07448C10.8501 9.07448 9.10635 9.32299 7.63215 9.82421C6.15795 10.3254 4.93226 11.0204 3.9635 11.9176C2.99474 12.8105 2.27448 13.8804 1.80274 15.1187C1.33099 16.357 1.09933 17.7091 1.09933 19.1749V20.8428C1.09933 22.2075 1.32257 23.4964 1.77325 24.7095C2.22393 25.9225 2.92734 26.9797 3.88347 27.8769C4.83959 28.7783 6.06108 29.4901 7.5437 30.0166C9.03054 30.5431 10.8038 30.8042 12.8677 30.8042C14.6873 30.8042 16.2625 30.5852 17.5978 30.1429C18.933 29.7007 20.0534 29.1152 20.9547 28.3823C21.8561 27.6494 22.5637 26.8113 23.0691 25.8636C23.5746 24.9201 23.9073 23.9387 24.0674 22.9278C24.08 22.7635 24.0884 22.6161 24.0969 22.4813C24.1053 22.3465 24.1179 22.2118 24.1264 22.0812C24.1348 21.9506 24.1432 21.82 24.1432 21.6852C24.1432 21.5547 24.1432 21.4073 24.1432 21.2472H11.1618V20.2911H11.166Z" fill="#0766D1"/>
<path d="M27.7695 31.3762V8.46289H29.349V30.0578H46.0285V31.3762H27.7695Z" fill="#0766D1"/>
<path d="M256.148 31.4142C256.148 31.2584 256.194 31.132 256.287 31.0393C256.379 30.9467 256.552 30.9004 256.809 30.9004C257.074 30.9004 257.256 30.9467 257.352 31.0393C257.449 31.132 257.496 31.2584 257.496 31.4142C257.496 31.5532 257.449 31.6669 257.352 31.7596C257.256 31.8523 257.074 31.8944 256.809 31.8944C256.556 31.8944 256.384 31.848 256.287 31.7596C256.194 31.6669 256.148 31.549 256.148 31.4142Z" fill="#0766D1"/>
<path d="M271.98 24.764C271.878 24.3218 271.714 23.9048 271.495 23.5131C271.276 23.1213 270.969 22.776 270.577 22.4853C270.185 22.1947 269.688 21.963 269.09 21.7904C268.492 21.6219 267.768 21.5376 266.917 21.5376C266.272 21.5376 265.691 21.605 265.177 21.7356C264.663 21.8704 264.213 22.0515 263.821 22.2789C263.429 22.5064 263.092 22.776 262.81 23.0834C262.528 23.3909 262.3 23.7195 262.123 24.069C261.947 24.4186 261.816 24.7767 261.736 25.1473C261.656 25.5138 261.614 25.876 261.614 26.234V26.6973C261.614 27.0638 261.656 27.4387 261.74 27.8093C261.824 28.1842 261.959 28.5464 262.14 28.896C262.321 29.2456 262.553 29.5741 262.839 29.8774C263.122 30.1807 263.463 30.446 263.855 30.6735C264.246 30.9009 264.697 31.0778 265.207 31.2084C265.716 31.339 266.289 31.4022 266.921 31.4022C267.772 31.4022 268.492 31.3221 269.086 31.1579C269.676 30.9936 270.173 30.7704 270.569 30.4797C270.964 30.1891 271.272 29.8479 271.495 29.452C271.718 29.0561 271.883 28.6264 271.992 28.1631H272.645C272.536 28.7191 272.35 29.2288 272.093 29.6963C271.832 30.1638 271.474 30.5682 271.019 30.9093C270.564 31.2505 270 31.5159 269.326 31.7054C268.652 31.895 267.852 31.9918 266.921 31.9918C265.961 31.9918 265.11 31.8528 264.368 31.5791C263.627 31.3053 263.004 30.9262 262.498 30.4418C261.993 29.9574 261.614 29.393 261.353 28.7444C261.092 28.0957 260.965 27.3923 260.965 26.6384V26.2761C260.965 25.5264 261.096 24.8272 261.353 24.1743C261.614 23.5215 261.993 22.9571 262.498 22.4811C263.004 22.0052 263.627 21.6303 264.368 21.3523C265.11 21.0785 265.961 20.9395 266.921 20.9395C267.852 20.9395 268.652 21.0364 269.322 21.2259C269.991 21.4155 270.556 21.6808 271.011 22.0178C271.466 22.3548 271.824 22.7591 272.085 23.2266C272.346 23.6942 272.527 24.2038 272.637 24.7514H271.98V24.764Z" fill="#0766D1"/>
<path d="M274.527 26.3224C274.527 25.5727 274.653 24.8735 274.902 24.2164C275.15 23.5594 275.529 22.9907 276.035 22.5106C276.54 22.0262 277.172 21.6471 277.93 21.3691C278.692 21.0911 279.585 20.9521 280.613 20.9521C281.641 20.9521 282.534 21.0911 283.292 21.3691C284.054 21.6471 284.686 22.0262 285.187 22.5106C285.693 22.9949 286.068 23.5636 286.316 24.2164C286.565 24.8735 286.687 25.5727 286.687 26.3224V26.6215C286.687 27.3712 286.565 28.0704 286.316 28.7275C286.068 29.3846 285.693 29.9532 285.187 30.4333C284.682 30.9177 284.05 31.2968 283.292 31.579C282.53 31.8612 281.637 32.0002 280.613 32.0002C279.585 32.0002 278.692 31.8612 277.93 31.579C277.168 31.2968 276.536 30.9177 276.035 30.4333C275.529 29.949 275.154 29.3803 274.902 28.7275C274.653 28.0704 274.527 27.3712 274.527 26.6215V26.3224ZM275.18 26.6678C275.18 27.03 275.222 27.4007 275.302 27.7756C275.382 28.1547 275.512 28.5169 275.685 28.8707C275.862 29.2245 276.089 29.553 276.372 29.8605C276.654 30.168 276.999 30.4376 277.399 30.665C277.799 30.8967 278.267 31.0778 278.798 31.2084C279.328 31.3389 279.935 31.4063 280.609 31.4063C281.283 31.4063 281.889 31.3431 282.42 31.2126C282.951 31.082 283.418 30.9051 283.818 30.6776C284.219 30.4502 284.56 30.1848 284.842 29.8816C285.124 29.5783 285.352 29.2456 285.529 28.896C285.705 28.5464 285.836 28.1757 285.912 27.7966C285.992 27.4176 286.03 27.0385 286.03 26.6636V26.2761C286.03 25.9265 285.992 25.5643 285.916 25.1936C285.84 24.823 285.714 24.4607 285.541 24.1111C285.364 23.7615 285.141 23.4288 284.867 23.1213C284.593 22.8138 284.252 22.5358 283.848 22.3C283.444 22.0641 282.972 21.8788 282.441 21.744C281.906 21.6092 281.295 21.5418 280.609 21.5418C279.922 21.5418 279.307 21.6092 278.768 21.744C278.229 21.8788 277.762 22.0641 277.361 22.2958C276.961 22.5274 276.62 22.797 276.342 23.1045C276.064 23.4119 275.841 23.7405 275.668 24.0901C275.496 24.4397 275.369 24.8019 275.293 25.1726C275.213 25.5432 275.175 25.9097 275.175 26.2635V26.6678H275.18Z" fill="#0766D1"/>
<path d="M289.738 31.7637V21.1831H290.382V24.3548C290.534 23.8577 290.761 23.4029 291.064 22.9859C291.368 22.5689 291.742 22.2109 292.185 21.9076C292.627 21.6043 293.128 21.3685 293.693 21.2C294.257 21.0315 294.876 20.9473 295.546 20.9473C296.363 20.9473 297.037 21.0525 297.572 21.2589C298.107 21.4653 298.536 21.7391 298.869 22.0761C299.198 22.413 299.442 22.7879 299.598 23.2091C299.754 23.6303 299.863 24.0515 299.922 24.4811C300.061 23.9925 300.284 23.5334 300.588 23.0996C300.891 22.6658 301.27 22.2951 301.716 21.975C302.163 21.6591 302.677 21.4064 303.258 21.2252C303.839 21.0399 304.467 20.9473 305.149 20.9473C305.806 20.9473 306.375 21.0189 306.851 21.1663C307.327 21.3095 307.731 21.5074 308.06 21.7602C308.388 22.0129 308.654 22.3035 308.852 22.6405C309.05 22.9774 309.205 23.3355 309.315 23.7145C309.424 24.0936 309.496 24.4895 309.534 24.8939C309.572 25.2983 309.589 25.6984 309.589 26.0901V31.7679H308.957V26.1154C308.957 25.4836 308.902 24.8855 308.793 24.3295C308.683 23.7735 308.489 23.2891 308.203 22.8764C307.917 22.4636 307.529 22.135 307.036 21.8992C306.539 21.6591 305.903 21.5411 305.124 21.5411C304.484 21.5411 303.915 21.6212 303.414 21.777C302.913 21.9329 302.475 22.1435 302.096 22.413C301.716 22.6784 301.396 22.9859 301.135 23.3312C300.874 23.6766 300.659 24.0431 300.491 24.4264C300.326 24.8097 300.204 25.1972 300.124 25.5847C300.044 25.9722 300.002 26.3428 299.998 26.6924V31.7637H299.354V26.7093C299.354 26.3302 299.349 25.9385 299.341 25.5299C299.332 25.1214 299.29 24.7338 299.223 24.3506C299.151 23.9715 299.042 23.6092 298.89 23.2639C298.739 22.9185 298.52 22.6194 298.237 22.3667C297.955 22.114 297.593 21.9118 297.151 21.7602C296.708 21.6085 296.165 21.5327 295.521 21.5327C294.868 21.5327 294.291 21.6128 293.781 21.777C293.276 21.9413 292.829 22.1561 292.45 22.4299C292.071 22.7037 291.747 23.0153 291.485 23.3692C291.224 23.723 291.01 24.0936 290.845 24.4853C290.681 24.8728 290.563 25.2688 290.491 25.6605C290.42 26.0564 290.382 26.4271 290.382 26.7809V31.7637H289.738Z" fill="#0766D1"/>
</svg>
