<svg width="141" height="28" viewBox="0 0 141 28" fill="none" xmlns="http://www.w3.org/2000/svg">
<path d="M93.7013 8.57178C99.6814 8.57178 103.073 13.1084 102.768 19.4048H88.6625C89.0693 22.0716 91.5113 23.9525 94.2135 23.6802C96.0624 23.7238 97.852 23.0308 99.1831 21.7556L101.647 24.4089C99.7133 26.3898 97.0164 27.4511 94.2412 27.3233C88.2195 27.3233 84.3296 23.3366 84.3296 17.9476C84.2729 15.4561 85.2398 13.049 87.0077 11.2803C88.7755 9.51165 91.1922 8.53378 93.7013 8.57178ZM29.1517 8.57178C35.1319 8.57178 38.5234 13.1084 38.2188 19.4048H24.1267C24.5334 22.0658 26.9668 23.9448 29.6639 23.6802C31.5128 23.7238 33.3024 23.0308 34.6335 21.7556L37.0976 24.4089C35.1637 26.3898 32.4668 27.4511 29.6916 27.3233C23.6699 27.3233 19.7801 23.3366 19.7801 17.9476C19.7233 15.4561 20.6902 13.049 22.4581 11.2803C24.226 9.51165 26.6426 8.53378 29.1517 8.57178ZM120.224 11.9399L116.999 13.8096C116.095 12.4759 114.561 11.7012 112.943 11.7612C110.88 11.7612 109.828 12.7648 109.828 13.9195C109.828 15.0743 111.489 15.5692 114.106 16.1466C114.165 16.1596 114.225 16.1726 114.285 16.1858L114.465 16.2259C114.555 16.2462 114.645 16.2669 114.735 16.288L114.916 16.3309C114.976 16.3454 115.037 16.3601 115.097 16.3751L115.278 16.4207L115.459 16.4679C118.015 17.1478 120.446 18.3297 120.446 21.5081C120.446 23.9964 118.273 27.3371 113.123 27.3096C109.89 27.5451 106.805 25.9279 105.177 23.1441L108.652 21.2882C109.587 22.9506 111.372 23.9617 113.289 23.9139C115.462 23.9139 116.584 22.8004 116.584 21.5356C116.584 20.2709 114.48 19.776 112.195 19.3085C112.134 19.2956 112.072 19.2826 112.01 19.2693L111.825 19.2291C111.794 19.2224 111.763 19.2155 111.732 19.2087L111.547 19.1668C108.678 18.5086 105.925 17.399 105.925 13.947C105.925 11.1013 108.693 8.44806 112.929 8.44806C115.806 8.27608 118.567 9.59772 120.224 11.9399ZM80.6889 0.666992V26.9521H76.8406V24.4776C75.3655 26.2913 73.1388 27.3388 70.7912 27.3235C68.3301 27.3026 65.9818 26.295 64.2796 24.5295C62.5774 22.764 61.6658 20.3904 61.7518 17.9476C61.6458 15.4959 62.5551 13.1081 64.2679 11.3395C65.9808 9.57091 68.348 8.57576 70.8189 8.58553C73.1377 8.56849 75.3441 9.57594 76.8406 11.335V0.666992H80.6889ZM16.5131 9.0117V12.5311L5.63258 23.529H16.7069V26.9934H0.59375V23.4878L11.4743 12.4898H0.842923V9.0117H16.5131ZM127.409 0.666992V17.8788L135.562 8.91547H140.241L133.167 16.6278L140.407 26.9521H136.075L130.454 18.9649L127.409 22.278V26.9659H123.561V0.666992H127.409ZM50.3176 8.58553C54.8857 8.58553 58.7341 11.5412 58.7341 16.4353V26.9521H54.775V16.9165C54.775 13.9745 53.3353 12.2011 50.4283 12.2011C49.1568 12.1078 47.9093 12.5807 47.024 13.4919C46.1387 14.403 45.7071 15.6579 45.8463 16.9165V26.9521H41.9287V16.4353C41.9287 11.5412 45.7494 8.58553 50.3176 8.58553ZM71.3173 12.2561C68.1522 12.2561 65.5863 14.8043 65.5863 17.9476C65.5863 21.0909 68.1522 23.639 71.3173 23.639C74.4824 23.639 77.0483 21.0909 77.0483 17.9476C77.0483 14.8043 74.4824 12.2561 71.3173 12.2561ZM88.6486 16.3941L98.5186 16.4078C98.3846 13.929 96.2528 12.0272 93.7567 12.1599C91.1953 12.0105 88.9585 13.8647 88.6486 16.3941ZM24.1267 16.3941L33.9691 16.4078C33.8277 13.9345 31.6981 12.0408 29.2071 12.1736C26.6609 12.0387 24.4427 13.8814 24.1267 16.3941Z" fill="#03363D"/>
</svg>
