<svg width="64" height="56" viewBox="0 0 64 56" fill="none" xmlns="http://www.w3.org/2000/svg">
<path d="M63.9993 0.167969H0.666016V55.832H63.9993V0.167969Z" fill="white"/>
<path d="M11.6347 39.6667C6.98288 34.7374 4.26111 27.9275 4.26801 19.8023C4.26158 12.6166 6.51932 6.44022 10.4007 1.74038L10.3944 1.74273H2.23633V39.6675H11.6289L11.6347 39.6667Z" fill="#A90533"/>
<path d="M54.5998 39.6698C56.6038 37.5236 58.3994 34.9959 60.0264 32.1051L50.9967 27.5903C47.8255 32.7458 43.1879 37.4913 36.7749 37.5229C27.4416 37.4913 23.7745 29.5103 23.7947 19.2378H58.672C58.7185 18.078 58.7185 17.5388 58.672 16.9805C58.8996 10.869 57.2799 5.73195 54.3335 1.73145L54.3183 1.74289H62.171V39.6676H54.5827L54.5998 39.6698Z" fill="#A90533"/>
<path d="M24.3593 10.4338C24.7454 5.7829 28.4123 2.65511 32.7117 2.6457C37.0405 2.65511 40.1681 5.7829 40.2741 10.4338H24.3593Z" fill="#A90533"/>
<path d="M7.20307 46.1012V44.5211H2.34961V53.8894H7.20307V52.3091H4.15555V49.8261H7.09005V48.2459H4.15555V46.1012H7.20307Z" fill="black"/>
<path d="M15.4427 49.9388C16.6526 49.7591 17.317 48.5602 17.3615 47.3427C17.317 45.351 16.0258 44.5269 14.2011 44.521H11.7179V53.8893H13.5239V50.1645L15.7813 53.8893H18.0387L15.4427 49.9388ZM13.5237 45.9884H13.7495C14.7347 46.0254 15.4742 46.2502 15.4425 47.4558C15.4742 48.5603 14.7598 48.8601 13.7495 48.8102H13.5237V45.9884Z" fill="black"/>
<path d="M23.6821 44.5211H21.8763V53.8894H26.2782V52.3091H23.6821V44.5211Z" fill="black"/>
<path d="M35.5336 51.9705L36.3237 53.8893H38.2425L34.7435 44.2952H33.2762L29.5514 53.8893H31.4701L32.2603 51.9705H35.5336ZM35.0821 50.5033H32.8247L33.8405 47.0043L35.0821 50.5033Z" fill="black"/>
<path d="M41.6288 53.8894H43.5475V47.5686L48.514 54.115H49.8683V44.5211H47.9496V50.8419L42.9831 44.2952H41.6288V53.8894Z" fill="black"/>
<path d="M57.7694 48.9229V50.3903H59.8011C59.7588 51.5695 58.7937 52.5685 57.6565 52.5348C55.8606 52.5685 54.9707 50.833 54.9476 49.2616C54.9707 47.7111 55.8481 45.9005 57.6565 45.8754C58.6056 45.9003 59.4079 46.5497 59.8011 47.3427L61.3813 46.5526C60.6863 45.0888 59.2825 44.277 57.6565 44.2952C54.8578 44.2772 53.0655 46.5873 53.0288 49.2616C53.0655 51.8692 54.8078 54.1918 57.5437 54.2279C60.4984 54.1918 61.8646 51.8317 61.8328 49.1487V48.9229H57.7694Z" fill="black"/>
</svg>
