<svg width="46" height="58" viewBox="0 0 46 58" fill="none" xmlns="http://www.w3.org/2000/svg">
<path d="M42.4255 0.5H3.57562C2.03942 0.5 0.793945 1.74529 0.793945 3.2815V17.9536L9.53621 15.5113L15.3553 17.9244L10.5932 15.5113C10.5932 15.5113 7.24354 13.6806 6.65397 11.2805C6.06458 8.88054 9.051 6.14176 9.051 6.14176L19.8534 7.52368L13.9772 6.41717C13.9772 6.41717 16.0383 5.04445 20.6737 5.19369C25.7609 5.35717 32.9287 6.64301 34.1115 7.82594C35.2946 9.00905 37.4991 16.999 36.2318 18.2668C35.6365 18.862 28.0339 16.9963 28.0339 16.9963L34.3762 19.0071C34.3762 19.0071 37.8937 27.0798 35.6686 34.0229C35.6686 34.0229 30.8264 31.3951 26.9926 26.2065C30.1694 32.8547 35.371 34.9866 35.371 34.9866C35.371 34.9866 33.4155 40.2504 32.2831 41.3827L13.8332 33.4499L4.46637 44.9128H42.4255C43.9619 44.9128 45.207 43.6673 45.207 42.1311V3.2815C45.207 1.74529 43.9619 0.5 42.4255 0.5Z" fill="#1A1918"/>
<path d="M8.58707 53.0795V56.0743C8.58707 56.5474 8.47831 56.9025 8.26097 57.1385C8.04344 57.3748 7.7562 57.4932 7.39981 57.4932C7.05399 57.4932 6.77387 57.3748 6.55927 57.1385C6.34484 56.9025 6.23754 56.5474 6.23754 56.0743V52.4853C6.23754 51.9188 6.21783 51.479 6.17896 51.1653C6.14009 50.8521 6.03461 50.595 5.86289 50.3942C5.69099 50.1932 5.41945 50.0929 5.04808 50.0929C4.30499 50.0929 3.81556 50.346 3.57997 50.8521C3.34401 51.3581 3.22649 52.0841 3.22649 53.0299V56.0743C3.22649 56.5418 3.11918 56.8954 2.90458 57.1344C2.68997 57.3734 2.40693 57.4932 2.05601 57.4932C1.71019 57.4932 1.42715 57.3734 1.20689 57.1344C0.986628 56.8954 0.876953 56.5418 0.876953 56.074V49.6296C0.876953 49.2059 0.975679 48.8842 1.1735 48.6642C1.37131 48.4442 1.63172 48.334 1.95546 48.334C2.26769 48.334 2.5281 48.4372 2.73705 48.6438C2.946 48.8502 3.05075 49.135 3.05075 49.4983V49.7131C3.44529 49.2452 3.86757 48.901 4.31777 48.6809C4.76796 48.4605 5.26798 48.3501 5.81836 48.3501C6.39065 48.3501 6.88263 48.4633 7.29396 48.689C7.70529 48.9146 8.04417 49.2561 8.31115 49.7131C8.69401 49.2505 9.10424 48.9079 9.54258 48.6847C9.98055 48.462 10.4662 48.3501 10.9988 48.3501C11.6198 48.3501 12.1551 48.4714 12.6045 48.7137C13.0537 48.9559 13.3894 49.3028 13.6115 49.754C13.805 50.1613 13.902 50.8021 13.902 51.6767V56.0743C13.902 56.5474 13.794 56.9021 13.5779 57.1385C13.3621 57.3748 13.0772 57.4932 12.723 57.4932C12.3797 57.4932 12.0989 57.3734 11.8804 57.1344C11.6614 56.8954 11.5525 56.5418 11.5525 56.0743V52.2874C11.5525 51.8037 11.5313 51.4157 11.4897 51.1244C11.4479 50.8329 11.3357 50.5879 11.1525 50.3898C10.9693 50.1918 10.6917 50.0929 10.3196 50.0929C10.0194 50.0929 9.7351 50.1809 9.46557 50.3571C9.19603 50.533 8.98654 50.7693 8.8369 51.0662C8.6701 51.4461 8.58707 52.1169 8.58707 53.0795Z" fill="#1A1918"/>
<path d="M24.6046 52.9211C24.6046 53.5923 24.4989 54.2108 24.2887 54.7773C24.0781 55.3438 23.7734 55.8306 23.3744 56.2376C22.9757 56.6446 22.499 56.9569 21.9452 57.174C21.391 57.3908 20.7676 57.4997 20.0754 57.4997C19.3884 57.4997 18.7706 57.3893 18.2221 57.1695C17.6735 56.9495 17.1985 56.6343 16.797 56.2242C16.3954 55.814 16.0906 55.3295 15.8829 54.7707C15.6751 54.2122 15.5714 53.5939 15.5714 52.9168C15.5714 52.2344 15.6766 51.6094 15.8871 51.0423C16.0974 50.4755 16.3994 49.991 16.7928 49.5892C17.1863 49.1875 17.6629 48.8779 18.2224 48.6602C18.7819 48.4428 19.3997 48.334 20.0754 48.334C20.7623 48.334 21.3857 48.4442 21.9452 48.6646C22.5049 48.8853 22.9839 49.1992 23.3827 49.607C23.7816 50.0147 24.0849 50.4995 24.2927 51.0614C24.5004 51.6237 24.6046 52.2434 24.6046 52.9211ZM22.3235 52.9211C22.3235 52.0023 22.1198 51.2873 21.7136 50.776C21.3072 50.2647 20.7612 50.0087 20.0754 50.0087C19.6327 50.0087 19.2429 50.1228 18.9057 50.3509C18.5684 50.5794 18.3088 50.916 18.1263 51.3615C17.9438 51.8071 17.8525 52.3269 17.8525 52.9211C17.8525 53.5095 17.9423 54.0239 18.1219 54.4639C18.3016 54.9038 18.5589 55.2408 18.8936 55.4745C19.228 55.7082 19.6221 55.825 20.0754 55.825C20.7612 55.825 21.3072 55.5679 21.7136 55.0537C22.1198 54.5395 22.3235 53.8284 22.3235 52.9211Z" fill="#1A1918"/>
<path d="M28.4642 49.5811V49.8534C28.8631 49.3305 29.2993 48.9463 29.773 48.7013C30.2464 48.4566 30.7906 48.334 31.4057 48.334C32.0038 48.334 32.5384 48.4633 33.0093 48.7222C33.4801 48.9811 33.8319 49.347 34.0646 49.8206C34.214 50.096 34.3109 50.3935 34.3551 50.7123C34.3993 51.0317 34.4217 51.439 34.4217 51.9344V56.129C34.4217 56.5805 34.3177 56.9218 34.1102 57.1532C33.9029 57.3841 33.633 57.4997 33.3009 57.4997C32.9629 57.4997 32.6892 57.3812 32.479 57.1447C32.2687 56.9081 32.1634 56.5697 32.1634 56.129V52.3718C32.1634 51.629 32.0594 51.0606 31.8516 50.667C31.6435 50.2736 31.2293 50.0766 30.6088 50.0766C30.2039 50.0766 29.8354 50.1965 29.5028 50.4358C29.1703 50.6752 28.9265 51.0041 28.7715 51.4224C28.6602 51.7584 28.6049 52.3857 28.6049 53.3051V56.129C28.6049 56.586 28.4987 56.9285 28.2863 57.157C28.0739 57.3855 27.7998 57.4997 27.4635 57.4997C27.1379 57.4997 26.8707 57.3812 26.6611 57.1447C26.4516 56.9081 26.3466 56.5697 26.3466 56.129V49.6137C26.3466 49.1844 26.4404 48.8639 26.6278 48.6519C26.8154 48.4401 27.0716 48.334 27.397 48.334C27.5956 48.334 27.775 48.3809 27.935 48.4743C28.0947 48.5681 28.223 48.7084 28.3195 48.8954C28.4157 49.0828 28.4642 49.3113 28.4642 49.5811Z" fill="#1A1918"/>
<path d="M45.1971 52.9211C45.1971 53.5923 45.0916 54.2108 44.8814 54.7773C44.6706 55.3438 44.366 55.8306 43.9671 56.2376C43.5684 56.6446 43.0917 56.9569 42.5379 57.174C41.9837 57.3908 41.3603 57.4997 40.6681 57.4997C39.9809 57.4997 39.3633 57.3893 38.8148 57.1695C38.2662 56.9495 37.791 56.6343 37.3897 56.2242C36.988 55.814 36.6833 55.3295 36.4754 54.7707C36.2678 54.2122 36.1639 53.5939 36.1639 52.9168C36.1639 52.2344 36.2692 51.6094 36.4798 51.0423C36.69 50.4755 36.9919 49.991 37.3855 49.5892C37.779 49.1875 38.2554 48.8779 38.8151 48.6602C39.3746 48.4428 39.9923 48.334 40.6681 48.334C41.355 48.334 41.9784 48.4442 42.5379 48.6646C43.0974 48.8853 43.5764 49.1992 43.9753 49.607C44.3741 50.0147 44.6775 50.4995 44.8852 51.0614C45.0931 51.6237 45.1971 52.2434 45.1971 52.9211ZM42.916 52.9211C42.916 52.0023 42.7125 51.2873 42.3061 50.776C41.8999 50.2647 41.3539 50.0087 40.6681 50.0087C40.2254 50.0087 39.8354 50.1228 39.4984 50.3509C39.1611 50.5794 38.9013 50.916 38.7188 51.3615C38.5363 51.8071 38.445 52.3269 38.445 52.9211C38.445 53.5095 38.535 54.0239 38.7146 54.4639C38.8941 54.9038 39.1514 55.2408 39.4861 55.4745C39.8204 55.7082 40.2148 55.825 40.6681 55.825C41.3539 55.825 41.8999 55.5679 42.3061 55.0537C42.7125 54.5395 42.916 53.8284 42.916 52.9211Z" fill="#1A1918"/>
</svg>
