<svg width="310" height="24" viewBox="0 0 310 24" fill="none" xmlns="http://www.w3.org/2000/svg">
<g clip-path="url(#clip0_2136_4508)">
<path d="M59.276 16.3882L55.8475 23.3801H53.375L64.8822 0.466797H68.0833L79.5779 23.3801H77.1223L73.6811 16.3882L72.8176 14.615L66.7355 2.26954H66.2216L60.1563 14.615" fill="white"/>
<path d="M101.664 17.1131C101.664 18.204 101.42 19.1686 100.927 20.0026C100.438 20.8365 99.722 21.5357 98.7869 22.1043C97.8519 22.6687 96.6978 23.0984 95.3289 23.3848C93.96 23.6754 92.3931 23.8186 90.6367 23.8186C88.7666 23.8186 87.1155 23.6291 85.6876 23.2416C84.2555 22.8583 83.0593 22.3318 82.0948 21.6663C81.1302 21.0008 80.4015 20.2132 79.9129 19.3076C79.4244 18.402 79.1758 17.4332 79.1758 16.4055H82.4654C82.4528 16.7467 82.5033 17.1089 82.6086 17.488C82.7139 17.8671 82.8908 18.2419 83.1393 18.6084C83.3878 18.9748 83.7164 19.3286 84.125 19.6529C84.5335 19.9815 85.0432 20.2721 85.6497 20.5248C86.2562 20.7776 86.9723 20.9797 87.7978 21.1314C88.6191 21.283 89.5753 21.3588 90.6578 21.3588C91.9424 21.3588 93.0544 21.2619 94.0021 21.064C94.9498 20.866 95.7332 20.588 96.3524 20.23C96.9758 19.872 97.4391 19.4381 97.7381 18.9327C98.0414 18.4273 98.193 17.8629 98.193 17.2353C98.193 16.6498 98.0709 16.1444 97.8308 15.7274C97.5865 15.3062 97.2327 14.9481 96.7694 14.6491C96.3061 14.35 95.7374 14.1057 95.0719 13.912C94.4064 13.7224 93.6483 13.554 92.7975 13.4108L86.9007 12.4546C85.7676 12.2651 84.7652 12.0082 83.8975 11.6965C83.0298 11.3848 82.2969 10.9847 81.7073 10.5003C81.1176 10.0159 80.6711 9.4388 80.3678 8.77331C80.0646 8.10781 79.9129 7.32438 79.9129 6.42301C79.9129 5.6143 80.0941 4.82666 80.4521 4.05586C80.8101 3.28928 81.404 2.60272 82.2253 2.0004C83.0467 1.39809 84.1292 0.917913 85.4644 0.551468C86.7996 0.189236 88.4338 0.00390625 90.3756 0.00390625C92.2583 0.00390625 93.8715 0.176599 95.2194 0.517771C96.5672 0.863156 97.6918 1.34754 98.5848 1.97513C99.4777 2.60272 100.156 3.35245 100.615 4.22855C101.074 5.10465 101.357 6.06498 101.458 7.11799H98.3489C98.2562 6.46934 98.0667 5.86703 97.7803 5.30683C97.4896 4.74663 97.0432 4.25383 96.4366 3.83684C95.8301 3.41985 95.0382 3.0871 94.0569 2.8428C93.0755 2.59851 91.854 2.48057 90.3882 2.48057C89.0024 2.48057 87.861 2.60272 86.9596 2.85123C86.0583 3.09974 85.3464 3.41142 84.8157 3.7905C84.285 4.16959 83.9143 4.59078 83.6995 5.05832C83.4889 5.52585 83.3794 5.96811 83.3794 6.39353C83.3794 6.94109 83.4763 7.41283 83.6743 7.81297C83.8722 8.21311 84.1671 8.55428 84.5672 8.84491C84.9673 9.13133 85.4728 9.37562 86.0835 9.57358C86.6943 9.77155 87.4145 9.93161 88.2443 10.0496L94.1579 10.9594C95.3204 11.1531 96.3692 11.4059 97.2959 11.7175C98.2225 12.0292 99.0144 12.4336 99.663 12.9222C100.312 13.4108 100.805 14.0004 101.15 14.6828C101.491 15.3609 101.664 16.1738 101.664 17.1131Z" fill="white"/>
<path d="M126.182 17.0081C126.182 18.12 125.934 19.1014 125.441 19.9523C124.944 20.7989 124.219 21.5149 123.263 22.092C122.307 22.669 121.128 23.1028 119.721 23.3977C118.318 23.6925 116.709 23.8399 114.898 23.8399C112.986 23.8399 111.305 23.642 109.857 23.246C108.403 22.8501 107.186 22.3152 106.201 21.6329C105.215 20.9505 104.474 20.1502 103.972 19.232C103.471 18.3138 103.223 17.3198 103.223 16.2583H107.346C107.346 16.5827 107.397 16.9196 107.498 17.2734C107.599 17.6272 107.763 17.9726 107.991 18.3096C108.218 18.6465 108.517 18.9709 108.892 19.2741C109.267 19.5774 109.734 19.8428 110.295 20.0702C110.855 20.2977 111.516 20.4788 112.283 20.6178C113.045 20.7525 113.93 20.8199 114.928 20.8199C116.12 20.8199 117.152 20.7315 118.019 20.5546C118.891 20.3777 119.603 20.1292 120.168 19.8048C120.732 19.4805 121.145 19.093 121.41 18.6423C121.68 18.1916 121.81 17.6988 121.81 17.1639C121.81 16.6501 121.705 16.2078 121.49 15.8371C121.279 15.4665 120.964 15.1506 120.551 14.881C120.138 14.6157 119.624 14.3924 119.018 14.2155C118.411 14.0386 117.716 13.8828 116.941 13.7522L110.922 12.7371C108.589 12.3328 106.837 11.6378 105.674 10.6522C104.511 9.66655 103.93 8.28922 103.93 6.52018C103.93 5.70305 104.111 4.89856 104.478 4.11513C104.844 3.3317 105.442 2.6325 106.276 2.02176C107.11 1.41102 108.21 0.922428 109.574 0.551772C110.939 0.181115 112.624 0 114.625 0C116.545 0 118.196 0.181116 119.578 0.539136C120.959 0.897156 122.101 1.39838 123.011 2.03861C123.92 2.67883 124.611 3.44542 125.083 4.33415C125.55 5.22288 125.833 6.20007 125.925 7.2615H122.042C121.949 6.66339 121.772 6.10741 121.503 5.59354C121.237 5.07968 120.82 4.62899 120.26 4.2457C119.7 3.86241 118.967 3.55914 118.062 3.34433C117.156 3.12531 116.023 3.02001 114.658 3.02001C113.403 3.02001 112.367 3.12952 111.55 3.34433C110.733 3.56336 110.084 3.84135 109.608 4.18673C109.132 4.53212 108.799 4.90698 108.606 5.31555C108.412 5.72411 108.319 6.12004 108.319 6.50755C108.319 6.9835 108.403 7.39628 108.576 7.75009C108.749 8.10389 109.014 8.41138 109.381 8.67673C109.743 8.93788 110.206 9.16111 110.766 9.33801C111.327 9.51492 111.996 9.66234 112.775 9.78448L118.567 10.7238C119.801 10.9344 120.888 11.2081 121.835 11.5409C122.779 11.8736 123.575 12.2906 124.224 12.7919C124.872 13.2931 125.357 13.8912 125.685 14.582C126.018 15.2685 126.182 16.0772 126.182 17.0081Z" fill="white"/>
<path d="M154.19 0.433594V13.6425C154.19 14.9988 153.967 16.2918 153.524 17.526C153.082 18.7601 152.358 19.8468 151.355 20.786C150.353 21.7253 149.047 22.4751 147.434 23.031C145.821 23.587 143.849 23.865 141.512 23.865C139.915 23.865 138.492 23.7387 137.241 23.4859C135.994 23.2332 134.899 22.8794 133.964 22.4245C133.029 21.9696 132.237 21.4263 131.584 20.7945C130.931 20.1627 130.405 19.4677 130.009 18.7095C129.609 17.9514 129.318 17.1469 129.137 16.2918C128.956 15.4368 128.863 14.5607 128.863 13.6593V0.437804H134.322V13.6593C134.322 14.5481 134.457 15.3778 134.722 16.1402C134.987 16.9026 135.413 17.5639 135.99 18.1241C136.567 18.6843 137.312 19.1265 138.226 19.4508C139.14 19.7752 140.244 19.9352 141.541 19.9352C142.876 19.9352 144.001 19.7709 144.915 19.4424C145.829 19.1139 146.57 18.6632 147.135 18.0946C147.699 17.5217 148.112 16.852 148.365 16.0854C148.617 15.3189 148.744 14.4975 148.744 13.6298V0.437804H154.19V0.433594Z" fill="white"/>
<path d="M183.21 8.86603C183.21 10.1212 182.99 11.2248 182.548 12.1851C182.11 13.1455 181.474 13.95 180.644 14.6028C179.815 15.2557 178.808 15.7485 177.62 16.0812C176.432 16.414 175.089 16.5825 173.594 16.5825H165.178V23.3764H158.523V0.433594H173.429C174.937 0.433594 176.293 0.593654 177.502 0.917978C178.711 1.24231 179.735 1.70983 180.581 2.32057C181.424 2.93131 182.076 3.68105 182.531 4.574C182.986 5.46273 183.214 6.4694 183.214 7.5898V8.86603H183.21ZM176.445 8.04469C176.445 7.03381 176.138 6.29671 175.527 5.8376C174.916 5.37849 173.956 5.14683 172.654 5.14683H165.195V11.8777H172.427C173.733 11.8777 174.727 11.6207 175.413 11.1026C176.1 10.5888 176.445 9.79689 176.445 8.73546V8.04469Z" fill="white"/>
<path d="M211.698 9.21654C211.698 10.5222 211.463 11.6721 210.995 12.6661C210.523 13.6602 209.862 14.4942 208.999 15.1596C208.139 15.8294 207.112 16.3348 205.92 16.676C204.728 17.0214 203.401 17.194 201.948 17.194H193.958V23.3815H185.828V0.421875H201.615C203.123 0.421875 204.492 0.590356 205.73 0.923104C206.968 1.25585 208.03 1.74023 208.914 2.38045C209.799 3.01646 210.485 3.79148 210.97 4.7097C211.454 5.6237 211.698 6.66406 211.698 7.82658V9.21654ZM203.43 8.3952C203.43 7.94873 203.363 7.58228 203.228 7.28744C203.093 6.9926 202.904 6.76094 202.66 6.58825C202.415 6.41555 202.12 6.29341 201.771 6.22601C201.421 6.15441 201.034 6.12071 200.612 6.12071H193.97V11.5036H200.444C200.836 11.5036 201.215 11.4573 201.573 11.3688C201.931 11.2762 202.251 11.133 202.529 10.935C202.807 10.737 203.026 10.4843 203.19 10.1768C203.355 9.8694 203.435 9.49874 203.435 9.06069V8.3952H203.43Z" fill="white"/>
<path d="M213.801 23.3756V0.432861L223.611 0.416016V17.264H234.954V23.3756H213.801Z" fill="white"/>
<path d="M249.738 15.4739V23.3756H239.928V15.4739L229.285 0.416016H240.354L244.856 9.08853L249.3 0.416016H260.369L249.738 15.4739Z" fill="white"/>
<path d="M53.8268 16.3885L50.3982 23.3804H47.9258L59.433 0.467101H61.6948" fill="white"/>
<path d="M11.166 12.2901H25.2383L25.2215 13.2167C25.2215 13.3894 25.2215 13.5453 25.2215 13.6842C25.2215 13.8275 25.2173 13.958 25.2046 14.0844C25.1962 14.2107 25.1836 14.3413 25.1751 14.4803C25.1667 14.6151 25.1541 14.7667 25.1457 14.9268C25.0362 15.5754 24.8508 16.2451 24.5939 16.9359C24.337 17.6267 23.9916 18.3048 23.5535 18.9619C23.1197 19.619 22.5848 20.2381 21.9445 20.8194C21.3085 21.4006 20.5504 21.9103 19.6785 22.3441C18.8024 22.778 17.8041 23.1234 16.6753 23.3845C15.5465 23.6414 14.2787 23.772 12.8592 23.772C11.2124 23.772 9.74658 23.6162 8.47034 23.3087C7.18989 23.0012 6.07792 22.58 5.12601 22.0451C4.1741 21.5102 3.37381 20.8784 2.72095 20.1581C2.06809 19.4336 1.54159 18.6628 1.13724 17.8457C0.732887 17.0286 0.442256 16.1778 0.265352 15.2974C0.0884477 14.4171 0 13.5495 0 12.6902V11.157C0 10.2767 0.0926633 9.39642 0.282204 8.5119C0.467532 7.62738 0.770796 6.77655 1.18357 5.95521C1.59635 5.13387 2.1397 4.3715 2.8052 3.65967C3.47069 2.94784 4.2794 2.32867 5.23131 1.80217C6.18322 1.27567 7.28677 0.858684 8.55037 0.551208C9.81397 0.243731 11.2545 0.0878906 12.8719 0.0878906C14.742 0.0878906 16.3889 0.311122 17.8168 0.753382C19.2404 1.19985 20.4577 1.8106 21.4644 2.58982C22.471 3.36904 23.2713 4.28726 23.8694 5.34026C24.4675 6.39747 24.8803 7.53471 25.112 8.76041L24.0211 8.77725C23.7894 7.50523 23.3514 6.38484 22.7111 5.4245C22.0667 4.46416 21.2622 3.65967 20.2934 3.01523C19.3247 2.36658 18.2085 1.8822 16.9491 1.55788C15.6897 1.23355 14.3292 1.0735 12.8635 1.0735C10.8501 1.0735 9.10635 1.32201 7.63215 1.82323C6.15795 2.32446 4.93226 3.01944 3.9635 3.9166C2.99474 4.80955 2.27448 5.87939 1.80274 7.11772C1.33099 8.35605 1.09933 9.70811 1.09933 11.1739V12.8418C1.09933 14.2065 1.32257 15.4954 1.77325 16.7085C2.22393 17.9215 2.92734 18.9787 3.88347 19.8759C4.83959 20.7773 6.06108 21.4891 7.5437 22.0156C9.03054 22.5421 10.8038 22.8032 12.8677 22.8032C14.6873 22.8032 16.2625 22.5842 17.5978 22.1419C18.933 21.6997 20.0534 21.1142 20.9547 20.3813C21.8561 19.6484 22.5637 18.8103 23.0691 17.8626C23.5746 16.9191 23.9073 15.9377 24.0674 14.9268C24.08 14.7625 24.0884 14.6151 24.0969 14.4803C24.1053 14.3455 24.1179 14.2108 24.1264 14.0802C24.1348 13.9496 24.1432 13.819 24.1432 13.6842C24.1432 13.5537 24.1432 13.4063 24.1432 13.2462H11.1618V12.2901H11.166Z" fill="white"/>
<path d="M27.7695 23.3762V0.462891H29.349V22.0578H46.0285V23.3762H27.7695Z" fill="white"/>
<path d="M256.148 23.4142C256.148 23.2584 256.194 23.132 256.287 23.0393C256.379 22.9467 256.552 22.9004 256.809 22.9004C257.074 22.9004 257.256 22.9467 257.352 23.0393C257.449 23.132 257.496 23.2584 257.496 23.4142C257.496 23.5532 257.449 23.6669 257.352 23.7596C257.256 23.8523 257.074 23.8944 256.809 23.8944C256.556 23.8944 256.384 23.848 256.287 23.7596C256.194 23.6669 256.148 23.549 256.148 23.4142Z" fill="white"/>
<path d="M271.98 16.764C271.878 16.3218 271.714 15.9048 271.495 15.5131C271.276 15.1213 270.969 14.776 270.577 14.4853C270.185 14.1947 269.688 13.963 269.09 13.7904C268.492 13.6219 267.768 13.5376 266.917 13.5376C266.272 13.5376 265.691 13.605 265.177 13.7356C264.663 13.8704 264.213 14.0515 263.821 14.2789C263.429 14.5064 263.092 14.776 262.81 15.0834C262.528 15.3909 262.3 15.7195 262.123 16.069C261.947 16.4186 261.816 16.7767 261.736 17.1473C261.656 17.5138 261.614 17.876 261.614 18.234V18.6973C261.614 19.0638 261.656 19.4387 261.74 19.8093C261.824 20.1842 261.959 20.5464 262.14 20.896C262.321 21.2456 262.553 21.5741 262.839 21.8774C263.122 22.1807 263.463 22.446 263.855 22.6735C264.246 22.9009 264.697 23.0778 265.207 23.2084C265.716 23.339 266.289 23.4022 266.921 23.4022C267.772 23.4022 268.492 23.3221 269.086 23.1579C269.676 22.9936 270.173 22.7704 270.569 22.4797C270.964 22.1891 271.272 21.8479 271.495 21.452C271.718 21.0561 271.883 20.6264 271.992 20.1631H272.645C272.536 20.7191 272.35 21.2288 272.093 21.6963C271.832 22.1638 271.474 22.5682 271.019 22.9093C270.564 23.2505 270 23.5159 269.326 23.7054C268.652 23.895 267.852 23.9918 266.921 23.9918C265.961 23.9918 265.11 23.8528 264.368 23.5791C263.627 23.3053 263.004 22.9262 262.498 22.4418C261.993 21.9574 261.614 21.393 261.353 20.7444C261.092 20.0957 260.965 19.3923 260.965 18.6384V18.2761C260.965 17.5264 261.096 16.8272 261.353 16.1743C261.614 15.5215 261.993 14.9571 262.498 14.4811C263.004 14.0052 263.627 13.6303 264.368 13.3523C265.11 13.0785 265.961 12.9395 266.921 12.9395C267.852 12.9395 268.652 13.0364 269.322 13.2259C269.991 13.4155 270.556 13.6808 271.011 14.0178C271.466 14.3548 271.824 14.7591 272.085 15.2266C272.346 15.6942 272.527 16.2038 272.637 16.7514H271.98V16.764Z" fill="white"/>
<path d="M274.527 18.3215C274.527 17.5718 274.653 16.8726 274.902 16.2155C275.15 15.5585 275.529 14.9898 276.035 14.5097C276.54 14.0253 277.172 13.6462 277.93 13.3682C278.692 13.0902 279.585 12.9512 280.613 12.9512C281.641 12.9512 282.534 13.0902 283.292 13.3682C284.054 13.6462 284.686 14.0253 285.187 14.5097C285.693 14.994 286.068 15.5627 286.316 16.2155C286.565 16.8726 286.687 17.5718 286.687 18.3215V18.6206C286.687 19.3703 286.565 20.0695 286.316 20.7266C286.068 21.3837 285.693 21.9523 285.187 22.4324C284.682 22.9168 284.05 23.2959 283.292 23.5781C282.53 23.8603 281.637 23.9993 280.613 23.9993C279.585 23.9993 278.692 23.8603 277.93 23.5781C277.168 23.2959 276.536 22.9168 276.035 22.4324C275.529 21.9481 275.154 21.3794 274.902 20.7266C274.653 20.0695 274.527 19.3703 274.527 18.6206V18.3215ZM275.18 18.6669C275.18 19.0291 275.222 19.3998 275.302 19.7747C275.382 20.1538 275.512 20.516 275.685 20.8698C275.862 21.2236 276.089 21.5521 276.372 21.8596C276.654 22.1671 276.999 22.4367 277.399 22.6641C277.799 22.8958 278.267 23.0769 278.798 23.2075C279.328 23.338 279.935 23.4054 280.609 23.4054C281.283 23.4054 281.889 23.3422 282.42 23.2117C282.951 23.0811 283.418 22.9042 283.818 22.6767C284.219 22.4493 284.56 22.1839 284.842 21.8807C285.124 21.5774 285.352 21.2447 285.529 20.8951C285.705 20.5455 285.836 20.1748 285.912 19.7957C285.992 19.4167 286.03 19.0376 286.03 18.6627V18.2752C286.03 17.9256 285.992 17.5634 285.916 17.1927C285.84 16.8221 285.714 16.4598 285.541 16.1102C285.364 15.7606 285.141 15.4279 284.867 15.1204C284.593 14.8129 284.252 14.5349 283.848 14.2991C283.444 14.0632 282.972 13.8779 282.441 13.7431C281.906 13.6083 281.295 13.5409 280.609 13.5409C279.922 13.5409 279.307 13.6083 278.768 13.7431C278.229 13.8779 277.762 14.0632 277.361 14.2949C276.961 14.5265 276.62 14.7961 276.342 15.1036C276.064 15.411 275.841 15.7396 275.668 16.0892C275.496 16.4388 275.369 16.801 275.293 17.1717C275.213 17.5423 275.175 17.9088 275.175 18.2626V18.6669H275.18Z" fill="white"/>
<path d="M289.738 23.7637V13.1831H290.382V16.3548C290.534 15.8577 290.761 15.4029 291.064 14.9859C291.368 14.5689 291.742 14.2109 292.185 13.9076C292.627 13.6043 293.128 13.3685 293.693 13.2C294.257 13.0315 294.876 12.9473 295.546 12.9473C296.363 12.9473 297.037 13.0525 297.572 13.2589C298.107 13.4653 298.536 13.7391 298.869 14.0761C299.198 14.413 299.442 14.7879 299.598 15.2091C299.754 15.6303 299.863 16.0515 299.922 16.4811C300.061 15.9925 300.284 15.5334 300.588 15.0996C300.891 14.6658 301.27 14.2951 301.716 13.975C302.163 13.6591 302.677 13.4064 303.258 13.2252C303.839 13.0399 304.467 12.9473 305.149 12.9473C305.806 12.9473 306.375 13.0189 306.851 13.1663C307.327 13.3095 307.731 13.5074 308.06 13.7602C308.388 14.0129 308.654 14.3035 308.852 14.6405C309.05 14.9774 309.205 15.3355 309.315 15.7145C309.424 16.0936 309.496 16.4895 309.534 16.8939C309.572 17.2983 309.589 17.6984 309.589 18.0901V23.7679H308.957V18.1154C308.957 17.4836 308.902 16.8855 308.793 16.3295C308.683 15.7735 308.489 15.2891 308.203 14.8764C307.917 14.4636 307.529 14.135 307.036 13.8992C306.539 13.6591 305.903 13.5411 305.124 13.5411C304.484 13.5411 303.915 13.6212 303.414 13.777C302.913 13.9329 302.475 14.1435 302.096 14.413C301.716 14.6784 301.396 14.9859 301.135 15.3312C300.874 15.6766 300.659 16.0431 300.491 16.4264C300.326 16.8097 300.204 17.1972 300.124 17.5847C300.044 17.9722 300.002 18.3428 299.998 18.6924V23.7637H299.354V18.7093C299.354 18.3302 299.349 17.9385 299.341 17.5299C299.332 17.1214 299.29 16.7338 299.223 16.3506C299.151 15.9715 299.042 15.6092 298.89 15.2639C298.739 14.9185 298.52 14.6194 298.237 14.3667C297.955 14.114 297.593 13.9118 297.151 13.7602C296.708 13.6085 296.165 13.5327 295.521 13.5327C294.868 13.5327 294.291 13.6128 293.781 13.777C293.276 13.9413 292.829 14.1561 292.45 14.4299C292.071 14.7037 291.747 15.0153 291.485 15.3692C291.224 15.723 291.01 16.0936 290.845 16.4853C290.681 16.8728 290.563 17.2688 290.491 17.6605C290.42 18.0564 290.382 18.4271 290.382 18.7809V23.7637H289.738Z" fill="white"/>
</g>
<defs>
<clipPath id="clip0_2136_4508">
<rect width="310" height="24" fill="white"/>
</clipPath>
</defs>
</svg>
