<svg width="261" height="20" viewBox="0 0 261 20" fill="none" xmlns="http://www.w3.org/2000/svg">
<g clip-path="url(#clip0_407_11211)">
<path d="M49.9058 13.6584L47.0192 19.485H44.9375L54.6258 0.390625H57.3209L66.9987 19.485H64.9312L62.0339 13.6584L61.3069 12.1808L56.1862 1.89291H55.7535L50.6469 12.1808" fill="#646479"/>
<path d="M85.5934 14.2615C85.5934 15.1706 85.388 15.9744 84.9729 16.6694C84.5612 17.3644 83.9587 17.947 83.1714 18.4209C82.3842 18.8912 81.4125 19.2493 80.26 19.4879C79.1075 19.7301 77.7883 19.8494 76.3095 19.8494C74.735 19.8494 73.3449 19.6915 72.1427 19.3686C70.9369 19.0492 69.9298 18.6104 69.1178 18.0559C68.3056 17.5013 67.6921 16.8449 67.2807 16.0903C66.8695 15.3356 66.6602 14.5283 66.6602 13.6719H69.4298C69.4192 13.9562 69.4617 14.258 69.5504 14.5739C69.639 14.8899 69.7879 15.2022 69.9972 15.5076C70.2064 15.8129 70.4831 16.1078 70.8271 16.378C71.171 16.6519 71.6001 16.894 72.1108 17.1046C72.6214 17.3153 73.2243 17.4837 73.9193 17.6101C74.6108 17.7364 75.4159 17.7996 76.3273 17.7996C77.4088 17.7996 78.345 17.7189 79.1429 17.5539C79.9408 17.3889 80.6004 17.1573 81.1217 16.8589C81.6466 16.5606 82.0367 16.199 82.2884 15.7779C82.5438 15.3567 82.6714 14.8864 82.6714 14.3634C82.6714 13.8754 82.5686 13.4543 82.3665 13.1068C82.1608 12.7558 81.8629 12.4574 81.4728 12.2082C81.0828 11.9589 80.604 11.7554 80.0436 11.5939C79.4833 11.4359 78.8451 11.2956 78.1287 11.1763L73.164 10.3794C72.21 10.2215 71.3661 10.0074 70.6355 9.7477C69.905 9.48795 69.2879 9.15453 68.7915 8.75086C68.295 8.3472 67.9191 7.86631 67.6637 7.31174C67.4085 6.75716 67.2807 6.1043 67.2807 5.35316C67.2807 4.67923 67.4333 4.02286 67.7347 3.38053C68.0361 2.74171 68.5362 2.16958 69.2276 1.66765C69.9192 1.16572 70.8306 0.765578 71.9547 0.460208C73.0789 0.158348 74.4548 0.00390625 76.0897 0.00390625C77.6748 0.00390625 79.033 0.147817 80.1678 0.432127C81.3026 0.719948 82.2494 1.1236 83.0013 1.64659C83.753 2.16958 84.3238 2.79436 84.7102 3.52444C85.0967 4.25452 85.335 5.0548 85.42 5.93231H82.8027C82.7246 5.39176 82.5651 4.88984 82.3239 4.42301C82.0792 3.95617 81.7034 3.54551 81.1926 3.19801C80.682 2.85052 80.0153 2.57323 79.1891 2.36965C78.3628 2.16607 77.3344 2.06779 76.1003 2.06779C74.9335 2.06779 73.9725 2.16958 73.2136 2.37667C72.4548 2.58376 71.8554 2.8435 71.4086 3.1594C70.9618 3.47531 70.6497 3.8263 70.4688 4.21591C70.2915 4.60552 70.1993 4.97407 70.1993 5.32859C70.1993 5.78489 70.2809 6.17801 70.4476 6.51146C70.6142 6.84491 70.8625 7.12921 71.1994 7.37141C71.5362 7.61009 71.9618 7.81366 72.476 7.97863C72.9902 8.14361 73.5966 8.27699 74.2952 8.37528L79.2741 9.13345C80.2529 9.29486 81.1359 9.50553 81.9161 9.7652C82.6962 10.0249 83.363 10.3619 83.9091 10.7691C84.4551 11.1763 84.8702 11.6676 85.1607 12.2363C85.4478 12.8014 85.5934 13.4788 85.5934 14.2615Z" fill="#646479"/>
<path d="M106.236 14.1734C106.236 15.1 106.027 15.9178 105.612 16.6269C105.194 17.3324 104.584 17.9291 103.779 18.41C102.974 18.8908 101.981 19.2523 100.797 19.4981C99.6153 19.7437 98.2606 19.8666 96.7358 19.8666C95.1261 19.8666 93.7108 19.7017 92.4917 19.3717C91.2675 19.0418 90.2428 18.596 89.4135 18.0274C88.5834 17.4588 87.9595 16.7918 87.5369 16.0267C87.1151 15.2615 86.9062 14.4332 86.9062 13.5486H90.3776C90.3776 13.8189 90.4205 14.0997 90.5055 14.3945C90.5906 14.6893 90.7286 14.9772 90.9206 15.258C91.1117 15.5388 91.3635 15.8091 91.6792 16.0618C91.9949 16.3145 92.3881 16.5357 92.8604 16.7252C93.3319 16.9148 93.8884 17.0657 94.5342 17.1815C95.1757 17.2938 95.9209 17.3499 96.7611 17.3499C97.7647 17.3499 98.6336 17.2763 99.3635 17.1288C100.098 16.9814 100.697 16.7743 101.173 16.504C101.648 16.2338 101.995 15.9108 102.219 15.5353C102.446 15.1597 102.555 14.749 102.555 14.3033C102.555 13.8751 102.467 13.5065 102.286 13.1976C102.108 12.8888 101.843 12.6255 101.495 12.4008C101.148 12.1798 100.715 11.9937 100.205 11.8463C99.6936 11.6988 99.1084 11.569 98.4559 11.4602L93.3883 10.6143C91.4241 10.2773 89.949 9.69817 88.9698 8.87683C87.9907 8.05546 87.5015 6.90768 87.5015 5.43348C87.5015 4.75254 87.6539 4.08213 87.9629 3.42928C88.271 2.77642 88.7745 2.19375 89.4767 1.6848C90.1789 1.17585 91.105 0.76869 92.2534 0.45981C93.4026 0.150929 94.8213 0 96.506 0C98.1225 0 99.5126 0.15093 100.676 0.44928C101.839 0.74763 102.8 1.16532 103.566 1.69884C104.332 2.23236 104.914 2.87118 105.311 3.61179C105.704 4.3524 105.942 5.16673 106.02 6.05125H102.751C102.672 5.55282 102.523 5.08951 102.297 4.66128C102.073 4.23307 101.722 3.85749 101.25 3.53808C100.779 3.21868 100.162 2.96595 99.3997 2.78694C98.6369 2.60443 97.683 2.51668 96.5338 2.51668C95.4772 2.51668 94.6049 2.60793 93.917 2.78694C93.2292 2.96947 92.6828 3.20113 92.282 3.48894C91.8812 3.77677 91.6009 4.08915 91.4384 4.42963C91.2751 4.77009 91.1968 5.10003 91.1968 5.42296C91.1968 5.81958 91.2675 6.16357 91.4131 6.45841C91.5588 6.75324 91.7819 7.00948 92.0909 7.23061C92.3957 7.44823 92.7855 7.63426 93.257 7.78168C93.7293 7.9291 94.2926 8.05195 94.9484 8.15373L99.8249 8.9365C100.864 9.112 101.779 9.34008 102.576 9.61742C103.371 9.89467 104.041 10.2422 104.588 10.6599C105.133 11.0776 105.542 11.576 105.818 12.1517C106.098 12.7238 106.236 13.3977 106.236 14.1734Z" fill="#646479"/>
<path d="M129.818 0.361328V11.3687C129.818 12.499 129.63 13.5765 129.257 14.605C128.885 15.6334 128.275 16.539 127.431 17.3216C126.587 18.1044 125.488 18.7292 124.13 19.1925C122.772 19.6558 121.111 19.8875 119.144 19.8875C117.799 19.8875 116.601 19.7822 115.548 19.5715C114.498 19.361 113.576 19.0661 112.789 18.687C112.002 18.308 111.335 17.8552 110.785 17.3287C110.235 16.8022 109.792 16.223 109.459 15.5912C109.122 14.9595 108.877 14.289 108.725 13.5765C108.572 12.864 108.494 12.1339 108.494 11.3827V0.364836H113.09V11.3827C113.09 12.1234 113.204 12.8148 113.427 13.4501C113.65 14.0855 114.009 14.6365 114.495 15.1034C114.98 15.5702 115.608 15.9387 116.377 16.209C117.147 16.4793 118.076 16.6126 119.168 16.6126C120.292 16.6126 121.239 16.4757 122.009 16.202C122.778 15.9282 123.402 15.5526 123.878 15.0788C124.353 14.6014 124.701 14.0433 124.914 13.4045C125.126 12.7657 125.233 12.0812 125.233 11.3581V0.364836H129.818V0.361328Z" fill="#646479"/>
<path d="M154.252 7.38836C154.252 8.4343 154.066 9.35396 153.694 10.1542C153.326 10.9545 152.79 11.625 152.091 12.169C151.393 12.713 150.545 13.1237 149.545 13.401C148.545 13.6783 147.414 13.8187 146.156 13.8187H139.07V19.4803H133.467V0.361328H146.017C147.286 0.361328 148.428 0.494711 149.446 0.764981C150.464 1.03525 151.326 1.42485 152.038 1.9338C152.748 2.44275 153.297 3.06754 153.68 3.81166C154.063 4.55227 154.255 5.39116 154.255 6.32483V7.38836H154.252ZM148.556 6.70391C148.556 5.86151 148.297 5.24726 147.783 4.86466C147.269 4.48207 146.46 4.28902 145.364 4.28902H139.084V9.89805H145.173C146.273 9.89805 147.11 9.68388 147.687 9.25213C148.265 8.82396 148.556 8.16407 148.556 7.27955V6.70391Z" fill="#646479"/>
<path d="M178.236 7.68045C178.236 8.76853 178.038 9.72678 177.644 10.5551C177.247 11.3835 176.69 12.0785 175.964 12.633C175.24 13.1912 174.375 13.6124 173.371 13.8967C172.368 14.1845 171.25 14.3284 170.027 14.3284H163.3V19.4846H156.455V0.351562H169.747C171.016 0.351562 172.169 0.491963 173.211 0.769253C174.254 1.04654 175.148 1.45019 175.892 1.98371C176.637 2.51372 177.215 3.15957 177.623 3.92475C178.031 4.68642 178.236 5.55339 178.236 6.52215V7.68045ZM171.275 6.996C171.275 6.62394 171.218 6.31857 171.105 6.07287C170.991 5.82717 170.832 5.63412 170.627 5.49021C170.42 5.34629 170.172 5.24451 169.878 5.18834C169.583 5.12868 169.258 5.10059 168.902 5.10059H163.31V9.58636H168.761C169.091 9.58636 169.41 9.54778 169.711 9.47403C170.013 9.39686 170.282 9.27753 170.516 9.11253C170.75 8.94753 170.935 8.73694 171.073 8.48069C171.212 8.2245 171.279 7.91562 171.279 7.55058V6.996H171.275Z" fill="#646479"/>
<path d="M180.006 19.4807V0.361694L188.265 0.347656V14.3877H197.815V19.4807H180.006Z" fill="#646479"/>
<path d="M210.263 12.8959V19.4807H202.004V12.8959L193.043 0.347656H202.362L206.153 7.57475L209.894 0.347656H219.214L210.263 12.8959Z" fill="#646479"/>
<path d="M45.3179 13.6581L42.4312 19.4847H40.3496L50.0379 0.390227H51.9422" fill="#646479"/>
<path d="M9.40105 10.2427H21.249L21.2349 11.0149C21.2349 11.1588 21.2349 11.2887 21.2349 11.4045C21.2349 11.5239 21.2313 11.6326 21.2206 11.738C21.2136 11.8432 21.203 11.9521 21.1958 12.0679C21.1887 12.1802 21.1781 12.3066 21.1711 12.44C21.0789 12.9805 20.9228 13.5386 20.7065 14.1142C20.4902 14.6899 20.1994 15.255 19.8305 15.8026C19.4653 16.3501 19.0149 16.8661 18.4759 17.3505C17.9404 17.8348 17.3021 18.2596 16.568 18.6211C15.8304 18.9826 14.9899 19.2705 14.0395 19.4881C13.0892 19.7021 12.0217 19.811 10.8266 19.811C9.44012 19.811 8.20599 19.6811 7.13148 19.4249C6.05342 19.1686 5.11722 18.8176 4.31577 18.3719C3.51432 17.9261 2.84053 17.3996 2.29086 16.7994C1.7412 16.1956 1.29792 15.5533 0.957483 14.8724C0.617044 14.1915 0.372351 13.4825 0.223409 12.7488C0.0744673 12.0152 0 11.2922 0 10.5761V9.29847C0 8.56489 0.0780165 7.83133 0.237598 7.09423C0.393632 6.35713 0.648961 5.6481 0.99649 4.96365C1.34402 4.2792 1.80149 3.64389 2.3618 3.0507C2.9221 2.45751 3.60298 1.94153 4.40443 1.50278C5.20587 1.06403 6.13499 0.716546 7.19886 0.460316C8.26273 0.204085 9.47556 0.0742188 10.8373 0.0742188C12.4118 0.0742188 13.7984 0.260245 15.0006 0.628795C16.1992 1.00085 17.2241 1.50981 18.0716 2.15916C18.9191 2.80851 19.5929 3.57369 20.0965 4.45119C20.6001 5.3322 20.9476 6.2799 21.1427 7.30132L20.2242 7.31535C20.0291 6.25533 19.6604 5.32168 19.1213 4.52139C18.5787 3.72111 17.9014 3.0507 17.0857 2.51367C16.2702 1.97313 15.3304 1.56948 14.2701 1.29921C13.2097 1.02893 12.0643 0.89556 10.8302 0.89556C9.13508 0.89556 7.66696 1.10265 6.42578 1.52033C5.1846 1.93803 4.15265 2.51718 3.33701 3.26481C2.52138 4.00893 1.91497 4.90047 1.51779 5.93241C1.12061 6.96435 0.925565 8.09107 0.925565 9.31255V10.7025C0.925565 11.8397 1.11352 12.9138 1.49296 13.9247C1.87241 14.9356 2.46463 15.8166 3.26963 16.5642C4.07462 17.3154 5.10304 17.9086 6.35131 18.3473C7.60313 18.7861 9.0961 19.0036 10.8338 19.0036C12.3658 19.0036 13.692 18.8211 14.8162 18.4526C15.9404 18.0841 16.8837 17.5961 17.6425 16.9854C18.4014 16.3746 18.9972 15.6762 19.4227 14.8865C19.8483 14.1002 20.1284 13.2824 20.2632 12.44C20.2738 12.3031 20.2809 12.1802 20.288 12.0679C20.2951 11.9556 20.3057 11.8433 20.3129 11.7345C20.3199 11.6256 20.327 11.5168 20.327 11.4045C20.327 11.2957 20.327 11.1729 20.327 11.0395H9.39752V10.2427H9.40105Z" fill="#646479"/>
<path d="M23.3809 19.4812V0.386719H24.7107V18.3825H38.7538V19.4812H23.3809Z" fill="#646479"/>
<path d="M215.66 19.5122C215.66 19.3823 215.699 19.277 215.777 19.1997C215.855 19.1226 216 19.084 216.217 19.084C216.44 19.084 216.593 19.1226 216.674 19.1997C216.756 19.277 216.795 19.3823 216.795 19.5122C216.795 19.628 216.756 19.7227 216.674 19.8C216.593 19.8772 216.44 19.9123 216.217 19.9123C216.004 19.9123 215.859 19.8737 215.777 19.8C215.699 19.7227 215.66 19.6245 215.66 19.5122Z" fill="#646479"/>
<path d="M228.989 13.9703C228.903 13.6018 228.765 13.2543 228.58 12.9279C228.396 12.6014 228.138 12.3136 227.808 12.0714C227.477 11.8292 227.059 11.6361 226.556 11.4923C226.052 11.3519 225.443 11.2816 224.726 11.2816C224.183 11.2816 223.694 11.3378 223.261 11.4466C222.828 11.559 222.449 11.7099 222.119 11.8994C221.789 12.089 221.506 12.3136 221.268 12.5698C221.031 12.826 220.839 13.0999 220.69 13.3911C220.542 13.6825 220.431 13.9809 220.364 14.2897C220.297 14.5951 220.261 14.897 220.261 15.1953V15.5814C220.261 15.8868 220.297 16.1992 220.367 16.508C220.438 16.8205 220.552 17.1223 220.704 17.4136C220.856 17.705 221.052 17.9787 221.293 18.2315C221.531 18.4842 221.818 18.7053 222.148 18.8949C222.477 19.0844 222.857 19.2318 223.286 19.3406C223.715 19.4495 224.197 19.5021 224.729 19.5021C225.446 19.5021 226.052 19.4354 226.552 19.2985C227.049 19.1616 227.467 18.9756 227.801 18.7334C228.133 18.4912 228.393 18.2069 228.58 17.877C228.768 17.547 228.907 17.189 228.999 16.8029H229.549C229.457 17.2662 229.3 17.691 229.084 18.0805C228.864 18.4701 228.563 18.8071 228.18 19.0914C227.797 19.3757 227.322 19.5969 226.754 19.7548C226.187 19.9128 225.513 19.9935 224.729 19.9935C223.921 19.9935 223.205 19.8776 222.58 19.6495C221.956 19.4214 221.432 19.1055 221.006 18.7018C220.58 18.2981 220.261 17.8278 220.042 17.2873C219.822 16.7467 219.715 16.1605 219.715 15.5323V15.2304C219.715 14.6056 219.825 14.023 220.042 13.4789C220.261 12.9349 220.58 12.4645 221.006 12.0679C221.432 11.6713 221.956 11.3589 222.58 11.1272C223.205 10.899 223.921 10.7832 224.729 10.7832C225.513 10.7832 226.187 10.864 226.751 11.0219C227.314 11.1799 227.79 11.401 228.173 11.6818C228.556 11.9626 228.857 12.2995 229.077 12.6891C229.297 13.0788 229.449 13.5035 229.542 13.9598H228.989V13.9703Z" fill="#646479"/>
<path d="M231.135 15.2682C231.135 14.6435 231.241 14.0608 231.45 13.5132C231.659 12.9657 231.978 12.4918 232.404 12.0917C232.83 11.6881 233.362 11.3721 234 11.1405C234.641 10.9088 235.393 10.793 236.259 10.793C237.124 10.793 237.876 10.9088 238.514 11.1405C239.156 11.3721 239.688 11.6881 240.11 12.0917C240.536 12.4953 240.852 12.9692 241.06 13.5132C241.27 14.0608 241.373 14.6435 241.373 15.2682V15.5175C241.373 16.1422 241.27 16.7249 241.06 17.2725C240.852 17.8201 240.536 18.2939 240.11 18.694C239.685 19.0976 239.153 19.4136 238.514 19.6487C237.873 19.8839 237.121 19.9997 236.259 19.9997C235.393 19.9997 234.641 19.8839 234 19.6487C233.358 19.4136 232.826 19.0976 232.404 18.694C231.978 18.2904 231.663 17.8165 231.45 17.2725C231.241 16.7249 231.135 16.1422 231.135 15.5175V15.2682ZM231.685 15.5561C231.685 15.8579 231.72 16.1668 231.787 16.4792C231.855 16.7951 231.964 17.097 232.11 17.3918C232.259 17.6866 232.45 17.9604 232.688 18.2166C232.926 18.4729 233.216 18.6976 233.553 18.8871C233.89 19.0801 234.284 19.2311 234.731 19.3399C235.177 19.4486 235.688 19.5048 236.255 19.5048C236.823 19.5048 237.333 19.4521 237.78 19.3434C238.227 19.2346 238.62 19.0871 238.957 18.8976C239.295 18.7081 239.582 18.4869 239.819 18.2342C240.057 17.9815 240.249 17.7042 240.398 17.4129C240.546 17.1216 240.656 16.8126 240.72 16.4967C240.788 16.1809 240.82 15.865 240.82 15.5526V15.2296C240.82 14.9383 240.788 14.6365 240.724 14.3276C240.66 14.0187 240.554 13.7168 240.408 13.4255C240.259 13.1341 240.071 12.8569 239.84 12.6006C239.61 12.3444 239.323 12.1127 238.982 11.9162C238.642 11.7196 238.245 11.5652 237.798 11.4529C237.347 11.3406 236.833 11.2844 236.255 11.2844C235.677 11.2844 235.159 11.3406 234.705 11.4529C234.252 11.5652 233.858 11.7196 233.521 11.9127C233.184 12.1057 232.897 12.3304 232.663 12.5866C232.429 12.8428 232.241 13.1166 232.095 13.408C231.951 13.6993 231.844 14.0011 231.78 14.3101C231.712 14.6189 231.68 14.9243 231.68 15.2191V15.5561H231.685Z" fill="#646479"/>
<path d="M243.941 19.8027V10.9856H244.484V13.6286C244.612 13.2144 244.803 12.8354 245.058 12.4879C245.314 12.1404 245.629 11.8421 246.002 11.5893C246.374 11.3366 246.796 11.1401 247.271 10.9996C247.746 10.8592 248.267 10.7891 248.831 10.7891C249.519 10.7891 250.087 10.8767 250.537 11.0487C250.988 11.2207 251.349 11.4489 251.629 11.7297C251.906 12.0105 252.112 12.3229 252.243 12.6739C252.374 13.0249 252.466 13.3759 252.516 13.7339C252.633 13.3267 252.82 12.9441 253.076 12.5826C253.332 12.2211 253.651 11.9122 254.026 11.6455C254.402 11.3822 254.835 11.1716 255.324 11.0206C255.814 10.8662 256.342 10.7891 256.916 10.7891C257.47 10.7891 257.949 10.8487 258.349 10.9716C258.75 11.0909 259.09 11.2558 259.367 11.4665C259.644 11.6771 259.867 11.9192 260.034 12.2001C260.201 12.4808 260.331 12.7792 260.424 13.0951C260.516 13.411 260.576 13.7409 260.608 14.0779C260.64 14.4149 260.655 14.7483 260.655 15.0747V19.8062H260.123V15.0958C260.123 14.5693 260.076 14.0709 259.985 13.6076C259.892 13.1442 259.729 12.7406 259.488 12.3966C259.247 12.0526 258.92 11.7788 258.505 11.5823C258.087 11.3822 257.551 11.2839 256.895 11.2839C256.357 11.2839 255.878 11.3506 255.456 11.4805C255.034 11.6104 254.665 11.7859 254.346 12.0105C254.026 12.2316 253.757 12.4879 253.537 12.7756C253.317 13.0635 253.136 13.3689 252.995 13.6883C252.856 14.0077 252.753 14.3306 252.686 14.6536C252.618 14.9765 252.583 15.2853 252.58 15.5766V19.8027H252.037V15.5907C252.037 15.2748 252.033 14.9484 252.027 14.6079C252.019 14.2675 251.984 13.9445 251.927 13.6251C251.867 13.3092 251.775 13.0073 251.647 12.7196C251.52 12.4317 251.335 12.1825 251.097 11.9719C250.86 11.7613 250.555 11.5928 250.183 11.4665C249.81 11.3401 249.353 11.2769 248.81 11.2769C248.261 11.2769 247.775 11.3436 247.345 11.4805C246.92 11.6174 246.544 11.7964 246.225 12.0246C245.906 12.2527 245.633 12.5124 245.412 12.8073C245.193 13.1021 245.012 13.411 244.873 13.7374C244.735 14.0603 244.636 14.3903 244.575 14.7167C244.516 15.0466 244.484 15.3556 244.484 15.6504V19.8027H243.941Z" fill="#646479"/>
</g>
<defs>
<clipPath id="clip0_407_11211">
<rect width="261" height="20" fill="white"/>
</clipPath>
</defs>
</svg>
