<svg width="48" height="60" viewBox="0 0 48 60" fill="none" xmlns="http://www.w3.org/2000/svg">
<path d="M43.4255 1.5H4.57562C3.03942 1.5 1.79395 2.74529 1.79395 4.2815V18.9536L10.5362 16.5113L16.3553 18.9244L11.5932 16.5113C11.5932 16.5113 8.24354 14.6806 7.65397 12.2805C7.06458 9.88054 10.051 7.14176 10.051 7.14176L20.8534 8.52368L14.9772 7.41717C14.9772 7.41717 17.0383 6.04445 21.6737 6.19369C26.7609 6.35717 33.9287 7.64301 35.1115 8.82594C36.2946 10.0091 38.4991 17.999 37.2318 19.2668C36.6365 19.862 29.0339 17.9963 29.0339 17.9963L35.3762 20.0071C35.3762 20.0071 38.8937 28.0798 36.6686 35.0229C36.6686 35.0229 31.8264 32.3951 27.9926 27.2065C31.1694 33.8547 36.371 35.9866 36.371 35.9866C36.371 35.9866 34.4156 41.2504 33.2831 42.3827L14.8332 34.4499L5.46637 45.9128H43.4255C44.9619 45.9128 46.207 44.6673 46.207 43.1311V4.2815C46.207 2.74529 44.9619 1.5 43.4255 1.5Z" fill="#646479"/>
<path d="M9.58707 54.0795V57.0743C9.58707 57.5474 9.47831 57.9025 9.26097 58.1385C9.04344 58.3748 8.7562 58.4932 8.39981 58.4932C8.05399 58.4932 7.77387 58.3748 7.55927 58.1385C7.34484 57.9025 7.23754 57.5474 7.23754 57.0743V53.4853C7.23754 52.9188 7.21783 52.479 7.17896 52.1653C7.14009 51.8521 7.03461 51.595 6.86289 51.3942C6.69099 51.1932 6.41945 51.0929 6.04808 51.0929C5.30499 51.0929 4.81556 51.346 4.57997 51.8521C4.34401 52.3581 4.22649 53.0841 4.22649 54.0299V57.0743C4.22649 57.5418 4.11918 57.8954 3.90458 58.1344C3.68997 58.3734 3.40693 58.4932 3.05601 58.4932C2.71019 58.4932 2.42715 58.3734 2.20689 58.1344C1.98663 57.8954 1.87695 57.5418 1.87695 57.074V50.6296C1.87695 50.2059 1.97568 49.8842 2.1735 49.6642C2.37131 49.4442 2.63172 49.334 2.95546 49.334C3.26769 49.334 3.5281 49.4372 3.73705 49.6438C3.946 49.8502 4.05075 50.135 4.05075 50.4983V50.7131C4.44529 50.2452 4.86757 49.901 5.31776 49.6809C5.76796 49.4605 6.26798 49.3501 6.81836 49.3501C7.39065 49.3501 7.88263 49.4633 8.29396 49.689C8.70529 49.9146 9.04417 50.2561 9.31115 50.7131C9.69401 50.2505 10.1042 49.9079 10.5426 49.6847C10.9806 49.462 11.4662 49.3501 11.9988 49.3501C12.6198 49.3501 13.1551 49.4714 13.6045 49.7137C14.0536 49.9559 14.3894 50.3028 14.6115 50.754C14.805 51.1613 14.902 51.8021 14.902 52.6767V57.0743C14.902 57.5474 14.794 57.9021 14.5779 58.1385C14.3621 58.3748 14.0772 58.4932 13.723 58.4932C13.3797 58.4932 13.0989 58.3734 12.8804 58.1344C12.6614 57.8954 12.5525 57.5418 12.5525 57.0743V53.2874C12.5525 52.8037 12.5313 52.4157 12.4897 52.1244C12.4479 51.8329 12.3357 51.5879 12.1525 51.3898C11.9693 51.1918 11.6917 51.0929 11.3196 51.0929C11.0194 51.0929 10.7351 51.1809 10.4656 51.3571C10.196 51.533 9.98654 51.7693 9.8369 52.0662C9.6701 52.4461 9.58707 53.1169 9.58707 54.0795Z" fill="#646479"/>
<path d="M25.6046 53.9211C25.6046 54.5923 25.4989 55.2108 25.2887 55.7773C25.0781 56.3438 24.7734 56.8306 24.3744 57.2376C23.9757 57.6446 23.499 57.9569 22.9452 58.174C22.391 58.3908 21.7676 58.4997 21.0754 58.4997C20.3884 58.4997 19.7706 58.3893 19.2221 58.1695C18.6735 57.9495 18.1985 57.6343 17.797 57.2242C17.3954 56.814 17.0906 56.3295 16.8829 55.7707C16.6751 55.2122 16.5714 54.5939 16.5714 53.9168C16.5714 53.2344 16.6766 52.6094 16.8871 52.0423C17.0974 51.4755 17.3994 50.991 17.7928 50.5892C18.1863 50.1875 18.6629 49.8779 19.2224 49.6602C19.7819 49.4428 20.3997 49.334 21.0754 49.334C21.7623 49.334 22.3857 49.4442 22.9452 49.6646C23.5049 49.8853 23.9839 50.1992 24.3827 50.607C24.7816 51.0147 25.0849 51.4995 25.2927 52.0614C25.5004 52.6237 25.6046 53.2434 25.6046 53.9211ZM23.3235 53.9211C23.3235 53.0023 23.1198 52.2873 22.7136 51.776C22.3072 51.2647 21.7612 51.0087 21.0754 51.0087C20.6327 51.0087 20.2429 51.1228 19.9057 51.3509C19.5684 51.5794 19.3088 51.916 19.1263 52.3615C18.9438 52.8071 18.8525 53.3269 18.8525 53.9211C18.8525 54.5095 18.9423 55.0239 19.1219 55.4639C19.3016 55.9038 19.5589 56.2408 19.8936 56.4745C20.228 56.7082 20.6221 56.825 21.0754 56.825C21.7612 56.825 22.3072 56.5679 22.7136 56.0537C23.1198 55.5395 23.3235 54.8284 23.3235 53.9211Z" fill="#646479"/>
<path d="M29.4642 50.5811V50.8534C29.8631 50.3305 30.2993 49.9463 30.773 49.7013C31.2464 49.4566 31.7906 49.334 32.4057 49.334C33.0038 49.334 33.5384 49.4633 34.0093 49.7222C34.4801 49.9811 34.8319 50.347 35.0646 50.8206C35.2141 51.096 35.311 51.3935 35.3551 51.7123C35.3993 52.0317 35.4217 52.439 35.4217 52.9344V57.129C35.4217 57.5805 35.3177 57.9218 35.1102 58.1532C34.9029 58.3841 34.633 58.4997 34.3009 58.4997C33.9629 58.4997 33.6892 58.3812 33.479 58.1447C33.2687 57.9081 33.1634 57.5697 33.1634 57.129V53.3718C33.1634 52.629 33.0594 52.0606 32.8516 51.667C32.6435 51.2736 32.2293 51.0766 31.6088 51.0766C31.2039 51.0766 30.8354 51.1965 30.5028 51.4358C30.1703 51.6752 29.9265 52.0041 29.7715 52.4224C29.6602 52.7584 29.6049 53.3857 29.6049 54.3051V57.129C29.6049 57.586 29.4987 57.9285 29.2863 58.157C29.0739 58.3855 28.7998 58.4997 28.4635 58.4997C28.1379 58.4997 27.8707 58.3812 27.6611 58.1447C27.4516 57.9081 27.3466 57.5697 27.3466 57.129V50.6137C27.3466 50.1844 27.4404 49.8639 27.6278 49.6519C27.8154 49.4401 28.0716 49.334 28.397 49.334C28.5956 49.334 28.775 49.3809 28.935 49.4743C29.0947 49.5681 29.223 49.7084 29.3195 49.8954C29.4157 50.0828 29.4642 50.3113 29.4642 50.5811Z" fill="#646479"/>
<path d="M46.1971 53.9211C46.1971 54.5923 46.0916 55.2108 45.8814 55.7773C45.6706 56.3438 45.366 56.8306 44.9671 57.2376C44.5684 57.6446 44.0917 57.9569 43.5379 58.174C42.9837 58.3908 42.3603 58.4997 41.6681 58.4997C40.9809 58.4997 40.3633 58.3893 39.8148 58.1695C39.2662 57.9495 38.791 57.6343 38.3897 57.2242C37.988 56.814 37.6833 56.3295 37.4754 55.7707C37.2678 55.2122 37.1639 54.5939 37.1639 53.9168C37.1639 53.2344 37.2692 52.6094 37.4798 52.0423C37.69 51.4755 37.9919 50.991 38.3855 50.5892C38.779 50.1875 39.2554 49.8779 39.8151 49.6602C40.3746 49.4428 40.9923 49.334 41.6681 49.334C42.355 49.334 42.9784 49.4442 43.5379 49.6646C44.0974 49.8853 44.5764 50.1992 44.9753 50.607C45.3741 51.0147 45.6775 51.4995 45.8852 52.0614C46.0931 52.6237 46.1971 53.2434 46.1971 53.9211ZM43.916 53.9211C43.916 53.0023 43.7125 52.2873 43.3061 51.776C42.8999 51.2647 42.3539 51.0087 41.6681 51.0087C41.2254 51.0087 40.8354 51.1228 40.4984 51.3509C40.1611 51.5794 39.9013 51.916 39.7188 52.3615C39.5363 52.8071 39.445 53.3269 39.445 53.9211C39.445 54.5095 39.535 55.0239 39.7146 55.4639C39.8941 55.9038 40.1514 56.2408 40.4861 56.4745C40.8204 56.7082 41.2148 56.825 41.6681 56.825C42.3539 56.825 42.8999 56.5679 43.3061 56.0537C43.7125 55.5395 43.916 54.8284 43.916 53.9211Z" fill="#646479"/>
</svg>
