<svg width="66" height="60" viewBox="0 0 66 60" fill="none" xmlns="http://www.w3.org/2000/svg">
<path d="M12.5095 41.6677C7.90416 36.7383 5.20962 29.9284 5.21644 21.8033C5.21008 14.6176 7.44524 8.44119 11.2878 3.74136L11.2816 3.74371H3.20508V41.6685H12.5038L12.5095 41.6677Z" fill="#646479"/>
<path d="M55.0449 41.6708C57.0288 39.5245 58.8065 36.9968 60.4173 34.1061L51.4779 29.5912C48.3384 34.7468 43.7471 39.4922 37.3983 39.5239C28.1583 39.4922 24.5279 31.5113 24.5479 21.2388H59.0764C59.1225 20.079 59.1225 19.5397 59.0764 18.9815C59.3017 12.87 57.6982 7.73293 54.7813 3.73242L54.7662 3.74387H62.5404V41.6686H55.028L55.0449 41.6708Z" fill="#646479"/>
<path d="M25.1068 12.4348C25.489 7.78387 29.1193 4.65609 33.3757 4.64668C37.6612 4.65609 40.7576 7.78387 40.8625 12.4348H25.1068Z" fill="#646479"/>
<path d="M8.12134 48.1012V46.5211H3.31641V55.8894H8.12134V54.3091H5.10429V51.8261H8.00944V50.2459H5.10429V48.1012H8.12134Z" fill="#646479"/>
<path d="M16.2785 51.9388C17.4764 51.7591 18.1341 50.5602 18.1782 49.3427C18.1341 47.351 16.8559 46.5269 15.0494 46.521H12.591V55.8893H14.3789V52.1645L16.6138 55.8893H18.8486L16.2785 51.9388ZM14.3788 47.9884H14.6023C15.5777 48.0254 16.3097 48.2502 16.2784 49.4558C16.3097 50.5603 15.6025 50.8601 14.6023 50.8102H14.3788V47.9884Z" fill="#646479"/>
<path d="M24.4356 46.5211H22.6479V55.8894H27.0057V54.3091H24.4356V46.5211Z" fill="#646479"/>
<path d="M36.1686 53.9705L36.9508 55.8893H38.8504L35.3864 46.2952H33.9337L30.2462 55.8893H32.1457L32.928 53.9705H36.1686ZM35.7216 52.5033H33.4867L34.4924 49.0043L35.7216 52.5033Z" fill="#646479"/>
<path d="M42.2028 55.8894H44.1023V49.5686L49.0191 56.115H50.3599V46.5211H48.4604V52.8419L43.5436 46.2952H42.2028V55.8894Z" fill="#646479"/>
<path d="M58.182 50.9229V52.3903H60.1934C60.1515 53.5695 59.1961 54.5685 58.0703 54.5348C56.2923 54.5685 55.4113 52.833 55.3885 51.2616C55.4113 49.7111 56.2799 47.9005 58.0703 47.8754C59.0098 47.9003 59.8041 48.5497 60.1934 49.3427L61.7578 48.5526C61.0698 47.0888 59.68 46.277 58.0703 46.2952C55.2995 46.2772 53.5251 48.5873 53.4888 51.2616C53.5251 53.8692 55.25 56.1918 57.9585 56.2279C60.8837 56.1918 62.2363 53.8317 62.2047 51.1487V50.9229H58.182Z" fill="#646479"/>
</svg>
