<svg width="169" height="32" viewBox="0 0 169 32" fill="none" xmlns="http://www.w3.org/2000/svg">
<path d="M112.544 9.48575C119.772 9.48575 123.872 14.9297 123.504 22.4853H106.453C106.945 25.6856 109.897 27.9427 113.163 27.6159C115.398 27.6682 117.561 26.8365 119.17 25.3063L122.149 28.4902C119.811 30.8673 116.551 32.1409 113.197 31.9876C105.918 31.9876 101.216 27.2035 101.216 20.7367C101.147 17.7469 102.316 14.8584 104.453 12.736C106.59 10.6136 109.511 9.44015 112.544 9.48575ZM34.5195 9.48575C41.748 9.48575 45.8475 14.9297 45.4794 22.4853H28.4455C28.9371 25.6786 31.8785 27.9333 35.1386 27.6159C37.3735 27.6682 39.5367 26.8365 41.1456 25.3063L44.1241 28.4902C41.7866 30.8673 38.5266 32.1409 35.1721 31.9876C27.8934 31.9876 23.1915 27.2035 23.1915 20.7367C23.1229 17.7469 24.2916 14.8584 26.4285 12.736C28.5655 10.6136 31.4866 9.44015 34.5195 9.48575ZM144.604 13.5275L140.705 15.7711C139.612 14.1707 137.758 13.241 135.802 13.313C133.309 13.313 132.038 14.5173 132.038 15.9031C132.038 17.2888 134.045 17.8827 137.208 18.5756C137.28 18.5911 137.352 18.6067 137.424 18.6226L137.642 18.6707C137.75 18.6951 137.86 18.7199 137.969 18.7452L138.187 18.7967C138.26 18.8141 138.333 18.8317 138.406 18.8497L138.625 18.9044L138.843 18.9611C141.934 19.7769 144.871 21.1953 144.871 25.0094C144.871 27.9953 142.244 32.0041 136.02 31.9711C132.112 32.2538 128.383 30.3131 126.415 26.9725L130.615 24.7454C131.745 26.7404 133.904 27.9536 136.221 27.8963C138.848 27.8963 140.203 26.5601 140.203 25.0424C140.203 23.5247 137.66 22.9308 134.899 22.3699C134.824 22.3544 134.75 22.3387 134.675 22.3228L134.451 22.2746C134.413 22.2664 134.376 22.2582 134.339 22.25L134.115 22.1998C130.647 21.41 127.319 20.0784 127.319 15.9361C127.319 12.5212 130.665 9.33728 135.786 9.33728C139.263 9.1309 142.601 10.7169 144.604 13.5275ZM96.8152 0V31.5422H92.1636V28.5727C90.3806 30.7491 87.689 32.0061 84.8514 31.9878C81.8764 31.9627 79.0379 30.7536 76.9804 28.635C74.9229 26.5164 73.821 23.668 73.9249 20.7367C73.7969 17.7947 74.8959 14.9293 76.9663 12.807C79.0368 10.6847 81.8981 9.49052 84.8849 9.50224C87.6877 9.4818 90.3547 10.6907 92.1636 12.8016V0H96.8152ZM19.2426 10.0137V14.2369L6.09069 27.4344H19.4768V31.5917H0V27.3849L13.1519 14.1874H0.301188V10.0137H19.2426ZM153.288 0V20.6542L163.144 9.89817H168.799L160.249 19.153L169 31.5422H163.763L156.969 21.9574L153.288 25.9332V31.5587H148.636V0H153.288ZM60.1038 9.50224C65.6255 9.50224 70.2772 13.0491 70.2772 18.922V31.5422H65.4917V19.4994C65.4917 15.9691 63.7515 13.8409 60.2376 13.8409C58.7007 13.7289 57.1928 14.2965 56.1227 15.3898C55.0525 16.4832 54.5309 17.9891 54.6991 19.4994V31.5422H49.9638V18.922C49.9638 13.0491 54.582 9.50224 60.1038 9.50224ZM85.4872 13.9069C81.6614 13.9069 78.5599 16.9647 78.5599 20.7367C78.5599 24.5086 81.6614 27.5664 85.4872 27.5664C89.3131 27.5664 92.4146 24.5086 92.4146 20.7367C92.4146 16.9647 89.3131 13.9069 85.4872 13.9069ZM106.437 18.8725L118.367 18.889C118.205 15.9144 115.628 13.6323 112.611 13.7915C109.515 13.6123 106.811 15.8373 106.437 18.8725ZM28.4455 18.8725L40.3425 18.889C40.1716 15.921 37.5974 13.6486 34.5864 13.808C31.5087 13.646 28.8275 15.8572 28.4455 18.8725Z" fill="#646479"/>
</svg>
