<svg width="74" height="86" viewBox="0 0 74 86" fill="none" xmlns="http://www.w3.org/2000/svg">
<path d="M47.1584 79.536C47.6611 79.4916 47.8838 79.536 48.0302 79.4536C59.7005 72.468 67.5337 62.5981 70.5753 49.2543C71.3453 45.8629 71.2117 42.3765 70.3463 38.9597C68.4818 31.5874 62.3413 26.5161 54.7371 26.0724C50.7982 25.8442 46.9993 26.2436 43.5377 28.4052C43.2641 30.2372 43.1114 32.0565 42.7041 33.8251C42.0614 36.6079 40.5851 38.8836 38.0144 40.3163C36.0799 41.3939 34.2218 41.4256 33.1655 40.348C31.8356 38.9914 31.8547 37.2545 32.6565 35.8092C33.77 33.787 35.1954 31.9107 36.6717 30.1167C37.6262 28.9567 38.9052 28.0565 40.0188 27.0613C38.9434 19.9172 32.1537 16.8491 23.9769 19.8411C23.7096 20.8427 23.4869 21.933 23.1242 22.9726C21.8197 26.7127 19.5099 29.5906 15.6601 30.9218C14.2156 31.4226 12.6121 31.6001 11.3585 30.3069C10.3913 29.3053 10.3976 27.505 11.4285 25.7428C13.0702 22.9472 15.5392 20.9821 18.2436 19.2833C19.1854 18.6937 20.1653 18.1676 21.088 17.6351C19.8408 6.54177 9.83766 -1.30599 0 3.12502C0.0954495 2.31362 -0.0254579 1.61632 0.273617 1.22964C0.604509 0.804919 1.28539 0.532339 1.85172 0.424575C7.22871 -0.576996 12.2557 0.037895 16.4173 3.95543C19.5162 6.87774 21.6543 10.4339 23.0288 14.4529C23.226 15.0234 23.436 15.5939 23.6524 16.1581C23.6842 16.2405 23.7924 16.2976 24.0087 16.5004C24.5623 16.4497 25.2623 16.4117 25.9495 16.3039C34.4636 14.9727 38.9243 17.2611 42.895 25.1786C43.6904 24.925 44.524 24.6651 45.3576 24.3862C50.2573 22.7381 55.1762 22.6303 60.095 24.2404C68.1891 26.8838 73.4134 33.8251 73.9415 42.5603C74.2279 47.3146 73.4579 51.8977 71.7271 56.316C67.521 67.0227 60.6295 75.4473 50.3655 80.956C49.8246 81.2476 49.2901 81.5455 48.762 81.8498C48.692 81.8941 48.6602 82.0082 48.412 82.433C50.5628 82.9401 52.6118 82.7372 54.648 82.6548C56.6461 82.5724 58.6442 82.4076 60.8077 82.2681C60.6231 83.9226 59.7514 84.5756 58.6569 84.9306C57.3969 85.3363 56.1052 85.837 54.8135 85.8814C51.3455 86.0082 47.8647 86.0779 44.4095 85.8561C41.6605 85.6849 40.9033 84.2079 42.1378 81.9829C44.7658 77.273 47.4257 72.5757 50.1046 67.8975C50.5246 67.1622 51.1227 66.5346 51.8036 65.6408C53.0126 67.0227 52.4781 68.037 52.0391 69.0068C50.48 72.4299 48.8892 75.8403 47.1775 79.5487L47.1584 79.536ZM13.312 28.3862C17.69 27.7966 20.4453 25.0074 20.6044 21.0772C17.6582 23.0233 14.8456 24.7539 13.312 28.3862ZM34.8136 38.2371C38.5743 37.3813 40.3306 34.833 39.9424 30.9598C37.5244 32.9566 35.399 34.89 34.8136 38.2371Z" fill="white"/>
</svg>
