<svg width="40" height="40" viewBox="0 0 40 40" fill="none" xmlns="http://www.w3.org/2000/svg">
<path opacity="0.1" fill-rule="evenodd" clip-rule="evenodd" d="M22.9778 6.34133C22.2204 3.21956 17.7796 3.21956 17.0222 6.34133C16.5316 8.35911 14.2276 9.31556 12.4498 8.23467C9.70489 6.56356 6.56533 9.70489 8.23644 12.448C8.48765 12.86 8.63802 13.3255 8.67532 13.8066C8.71262 14.2877 8.6358 14.7708 8.4511 15.2166C8.26641 15.6624 7.97906 16.0583 7.61244 16.3721C7.24583 16.6858 6.81031 16.9086 6.34133 17.0222C3.21956 17.7796 3.21956 22.2204 6.34133 22.9778C6.80989 23.0917 7.24495 23.3146 7.61115 23.6284C7.97735 23.9421 8.26436 24.3378 8.44884 24.7833C8.63332 25.2289 8.71007 25.7116 8.67286 26.1924C8.63565 26.6732 8.48551 27.1384 8.23467 27.5502C6.56356 30.2951 9.70489 33.4347 12.448 31.7636C12.86 31.5124 13.3255 31.362 13.8066 31.3247C14.2877 31.2874 14.7708 31.3642 15.2166 31.5489C15.6624 31.7336 16.0583 32.0209 16.3721 32.3876C16.6858 32.7542 16.9086 33.1897 17.0222 33.6587C17.7796 36.7804 22.2204 36.7804 22.9778 33.6587C23.0917 33.1901 23.3146 32.755 23.6284 32.3888C23.9421 32.0226 24.3378 31.7356 24.7833 31.5512C25.2289 31.3667 25.7116 31.2899 26.1924 31.3271C26.6732 31.3644 27.1384 31.5145 27.5502 31.7653C30.2951 33.4364 33.4347 30.2951 31.7636 27.552C31.5124 27.14 31.362 26.6745 31.3247 26.1934C31.2874 25.7123 31.3642 25.2292 31.5489 24.7834C31.7336 24.3376 32.0209 23.9417 32.3876 23.6279C32.7542 23.3142 33.1897 23.0914 33.6587 22.9778C36.7804 22.2204 36.7804 17.7796 33.6587 17.0222C33.1901 16.9083 32.755 16.6854 32.3888 16.3716C32.0226 16.0579 31.7356 15.6622 31.5512 15.2167C31.3667 14.7711 31.2899 14.2884 31.3271 13.8076C31.3644 13.3268 31.5145 12.8616 31.7653 12.4498C33.4364 9.70489 30.2951 6.56533 27.552 8.23644C27.14 8.48765 26.6745 8.63802 26.1934 8.67532C25.7123 8.71262 25.2292 8.6358 24.7834 8.4511C24.3376 8.26641 23.9417 7.97906 23.6279 7.61244C23.3142 7.24583 23.0914 6.81031 22.9778 6.34133ZM26.3342 19.9993L17.4453 25.3327V14.666L26.3342 19.9993Z" fill="#003CFD"/>
<path fill-rule="evenodd" clip-rule="evenodd" d="M16.0504 6.10505C17.0553 1.96481 22.945 1.96498 23.9495 6.10558C24.026 6.42154 24.1762 6.71523 24.3875 6.96223C24.5989 7.20923 24.8657 7.40282 25.166 7.52725C25.4663 7.65169 25.7918 7.70345 26.116 7.67831C26.4401 7.65318 26.7537 7.55188 27.0313 7.38263C30.6696 5.16615 34.8354 9.32975 32.6194 12.9698C32.4503 13.2473 32.3491 13.5609 32.324 13.8848C32.2989 14.2087 32.3507 14.5339 32.4749 14.8341C32.5992 15.1343 32.7926 15.4009 33.0393 15.6122C33.2859 15.8235 33.5788 15.9736 33.8943 16.0504C38.0345 17.0553 38.0346 22.9452 33.894 23.9497C33.5781 24.0262 33.2846 24.1763 33.0376 24.3877C32.7906 24.5991 32.597 24.8658 32.4726 25.1661C32.3482 25.4665 32.2964 25.792 32.3215 26.1161C32.3467 26.4402 32.4482 26.7542 32.6174 27.0317C34.8339 30.6701 30.6699 34.8355 27.0299 32.6194C26.7524 32.4504 26.439 32.3492 26.1151 32.3242C25.7912 32.2991 25.4659 32.3508 25.1658 32.4751C24.8656 32.5994 24.599 32.7927 24.3876 33.0395C24.1763 33.2862 24.0261 33.5793 23.9493 33.895C22.9444 38.0352 17.0547 38.0347 16.0502 33.8942C15.9736 33.5782 15.8236 33.2848 15.6122 33.0378C15.4008 32.7908 15.1341 32.5972 14.8337 32.4727C14.5334 32.3483 14.2079 32.2966 13.8838 32.3217C13.5596 32.3468 13.2457 32.4483 12.9681 32.6176C9.32979 34.834 5.16439 30.6701 7.38048 27.03C7.54949 26.7526 7.65063 26.4391 7.6757 26.1152C7.70078 25.7913 7.64907 25.4661 7.52478 25.1659C7.40049 24.8657 7.20712 24.5991 6.96041 24.3878C6.71369 24.1764 6.42058 24.0262 6.1049 23.9495C1.96467 22.9445 1.96513 17.0548 6.10571 16.0503C6.42167 15.9738 6.71509 15.8237 6.96209 15.6123C7.20909 15.4009 7.40268 15.1342 7.52712 14.8339C7.65155 14.5335 7.70331 14.208 7.67818 13.8839C7.65305 13.5598 7.55154 13.2458 7.3823 12.9683C5.16592 9.3301 9.32923 5.16481 12.9692 7.3802C14.1689 8.10968 15.7197 7.46508 16.0504 6.10505ZM9.11751 16.114C8.89095 16.4968 8.60242 16.8409 8.26252 17.1318C7.77636 17.5479 7.19884 17.8433 6.57695 17.994C4.47444 18.5044 4.47426 21.4959 6.57695 22.006C7.19839 22.1571 7.77594 22.4528 8.26162 22.8689C8.7473 23.285 9.12795 23.8099 9.37263 24.4008C9.6173 24.9916 9.7191 25.6319 9.66974 26.2696C9.62039 26.9071 9.42131 27.5241 9.08869 28.0702C7.96262 29.9199 10.0795 32.035 11.9273 30.9097C12.4737 30.5766 13.0911 30.3771 13.7292 30.3277C14.3672 30.2782 15.008 30.3801 15.5992 30.625C15.7772 30.6988 15.9492 30.7849 16.114 30.8824C16.4967 31.109 16.8408 31.3975 17.1317 31.7373C17.5478 32.2235 17.8432 32.801 17.9939 33.4229C18.5042 35.5254 21.4959 35.5251 22.006 33.4224C22.1571 32.8009 22.4527 32.2239 22.8688 31.7382C23.0594 31.5158 23.2727 31.3154 23.5048 31.14C23.7794 30.9324 24.0803 30.7599 24.4006 30.6272C24.7205 30.4948 25.0549 30.4042 25.3955 30.3568C25.684 30.3166 25.977 30.3075 26.2694 30.3301C26.907 30.3795 27.5239 30.5786 28.0701 30.9112C29.9197 32.0372 32.0349 29.9204 30.9096 28.0726C30.5764 27.5262 30.377 26.9088 30.3275 26.2707C30.2781 25.6326 30.38 24.9919 30.6249 24.4006C30.8699 23.8094 31.251 23.2843 31.7372 22.8682C32.2234 22.4521 32.8012 22.1566 33.423 22.0059C35.5256 21.4956 35.5249 18.504 33.4222 17.9939C32.8008 17.8428 32.2238 17.5472 31.7381 17.1311C31.2524 16.715 30.8718 16.1901 30.6271 15.5992C30.3824 15.0084 30.2806 14.3681 30.33 13.7304C30.3793 13.0929 30.5784 12.4759 30.911 11.9298C32.0372 10.08 29.92 7.96471 28.0721 9.09045C27.5258 9.4235 26.9085 9.62287 26.2706 9.67233C25.6325 9.7218 24.9917 9.61991 24.4005 9.37495C24.2226 9.30126 24.0507 9.21525 23.886 9.11776C23.5032 8.89119 23.159 8.60262 22.868 8.26266C22.452 7.7765 22.1565 7.1987 22.0058 6.57682C21.4954 4.4743 18.504 4.47439 17.9939 6.57709C17.3433 9.25261 14.2859 10.5214 11.9301 9.08913C10.0804 7.963 7.96457 10.0798 9.09031 11.9277C9.42336 12.4741 9.62273 13.0914 9.67219 13.7293C9.72166 14.3674 9.61978 15.0081 9.37482 15.5994C9.3011 15.7773 9.21504 15.9493 9.11751 16.114Z" fill="#003CFD"/>
<path fill-rule="evenodd" clip-rule="evenodd" d="M16.4929 14.1381C16.7983 13.9584 17.1759 13.9538 17.4856 14.1258L26.4856 19.1258C26.8031 19.3022 27 19.6368 27 20C27 20.3632 26.8031 20.6978 26.4856 20.8742L17.4856 25.8742C17.1759 26.0462 16.7983 26.0416 16.4929 25.8619C16.1875 25.6822 16 25.3543 16 25V15C16 14.6457 16.1875 14.3178 16.4929 14.1381ZM18 16.6995V23.3005L23.9409 20L18 16.6995Z" fill="#003CFD"/>
</svg>
