<svg width="40" height="40" viewBox="0 0 40 40" fill="none" xmlns="http://www.w3.org/2000/svg">
<path opacity="0.1" d="M3.84961 13.6246L7.24961 3.84961H33.5996L35.7246 13.6246H3.84961Z" fill="#003CFD"/>
<path d="M7.40634 3.00001C7.03572 3.03391 6.69481 3.29276 6.56259 3.64063L3.06259 13.1563C3.02185 13.266 3.00059 13.3829 3.00009 13.5V19C2.99262 19.5283 3.47172 20.0142 4.00009 20.0142C4.52845 20.0142 5.00755 19.5283 5.00009 19V14.5H35.0001V35H5.00009V25H11.5001C12.0284 25.0075 12.5143 24.5284 12.5143 24C12.5143 23.4716 12.0284 22.9925 11.5001 23H4.00009C3.4765 23.0001 3.00014 23.4764 3.00009 24V36C3.00014 36.5236 3.4765 36.9999 4.00009 37H36.0001C36.5237 36.9999 37 36.5236 37.0001 36V13.5C37.0002 13.4158 36.9897 13.3316 36.9688 13.25L34.4688 3.73438C34.3531 3.3145 33.9356 2.99801 33.5001 3.00001C24.8042 3.00001 16.0955 3.00001 7.40634 3.00001ZM8.20321 5.00001H18.5001V12.5H5.43759L8.20321 5.00001ZM20.5001 5.00001H32.7345L34.7032 12.5H20.5001V5.00001ZM18.3595 19.5C17.8843 19.5675 17.4954 20.0201 17.5001 20.5V23C16.807 23 16.0917 23 15.4063 23C14.8827 23.0244 14.4285 23.5232 14.453 24.0469C14.4776 24.5706 14.9764 25.0247 15.5001 25H17.5001V27.5C17.5027 28.2091 18.4305 28.7204 19.0313 28.3438L24.5313 24.8438C25.0961 24.4843 25.0961 23.5157 24.5313 23.1563L19.0313 19.6563C18.835 19.5275 18.5924 19.4711 18.3595 19.5ZM19.5001 22.3125L22.1407 24L19.5001 25.6875V22.3125Z" fill="#003CFD"/>
</svg>
