<svg width="40" height="40" viewBox="0 0 40 40" fill="none" xmlns="http://www.w3.org/2000/svg">
<path opacity="0.1" d="M19.9987 3.33398L25.1487 13.7673L36.6654 15.4507L28.332 23.5673L30.2987 35.034L19.9987 29.6173L9.6987 35.034L11.6654 23.5673L3.33203 15.4507L14.8487 13.7673L19.9987 3.33398Z" fill="#003CFD"/>
<path fill-rule="evenodd" clip-rule="evenodd" d="M20.0007 2.33398C20.3813 2.33398 20.7289 2.55006 20.8974 2.89136L25.8149 12.8538L36.812 14.4612C37.1885 14.5162 37.5012 14.7802 37.6186 15.1422C37.736 15.5042 37.6377 15.9015 37.3651 16.167L29.4085 23.9167L31.2863 34.8649C31.3506 35.2401 31.1964 35.6193 30.8884 35.843C30.5804 36.0668 30.1721 36.0962 29.8352 35.9191L20.0007 30.7472L10.1661 35.9191C9.82922 36.0962 9.42092 36.0668 9.11295 35.843C8.80497 35.6193 8.65072 35.2401 8.71507 34.8649L10.5928 23.9167L2.63628 16.167C2.36366 15.9015 2.26539 15.5042 2.38277 15.1422C2.50015 14.7802 2.81283 14.5162 3.18939 14.4612L14.1864 12.8538L19.104 2.89136C19.2724 2.55006 19.6201 2.33398 20.0007 2.33398ZM20.0007 5.59324L15.7474 14.2099C15.6018 14.5048 15.3207 14.7092 14.9953 14.7568L5.48242 16.1473L12.3651 22.851C12.601 23.0807 12.7086 23.4118 12.653 23.7364L11.0289 33.2057L19.5352 28.7322C19.8266 28.579 20.1747 28.579 20.4661 28.7322L28.9725 33.2057L27.3484 23.7364C27.2927 23.4118 27.4004 23.0807 27.6363 22.851L34.5189 16.1473L25.0061 14.7568C24.6807 14.7092 24.3995 14.5048 24.254 14.2099L20.0007 5.59324Z" fill="#003CFD"/>
</svg>
