<svg width="179" height="13" viewBox="0 0 179 13" fill="none" xmlns="http://www.w3.org/2000/svg">
<path d="M6.12871 13C4.22861 13 2.73067 12.4283 1.6349 11.2847C0.544966 10.1353 0 8.539 0 6.49565C0 4.45815 0.547885 2.86762 1.64365 1.72406C2.73941 0.574682 4.23444 0 6.12871 0C7.18367 0 8.13955 0.211878 8.99639 0.635634C9.85315 1.05359 10.5322 1.64569 11.0334 2.41193C11.5405 3.17237 11.8086 4.0402 11.8378 5.01542H8.75153C8.67579 4.2782 8.39602 3.6861 7.91224 3.23913C7.42847 2.78634 6.83396 2.55996 6.12871 2.55996C5.2486 2.55996 4.55208 2.91115 4.03918 3.61354C3.52626 4.31593 3.26981 5.27374 3.26981 6.487C3.26981 7.71763 3.52626 8.68406 4.03918 9.38649C4.55208 10.0889 5.25151 10.44 6.13745 10.44C6.84271 10.44 7.43139 10.2253 7.90349 9.79575C8.38143 9.36616 8.66997 8.78277 8.76908 8.04557H11.8552C11.7795 9.53165 11.2141 10.7304 10.1592 11.6417C9.10418 12.5472 7.7607 13 6.12871 13ZM16.5676 0.217682V7.98458C16.5676 8.72187 16.7599 9.29653 17.1446 9.70864C17.5351 10.115 18.086 10.3182 18.797 10.3182C19.5081 10.3182 20.056 10.115 20.4407 9.70864C20.8253 9.29653 21.0177 8.72187 21.0177 7.98458V0.217682H24.2263V8.3242C24.2263 9.73476 23.7309 10.8668 22.74 11.7201C21.7491 12.5734 20.4348 13 18.797 13C17.1534 13 15.8361 12.5734 14.8453 11.7201C13.8544 10.8668 13.359 9.73476 13.359 8.3242V0.217682H16.5676ZM32.2697 12.7824H29.0698V2.79505H25.5902V0.217682H35.7494V2.79505H32.2697V12.7824ZM46.3631 13C44.463 13 42.9651 12.4283 41.8693 11.2847C40.7794 10.1353 40.2344 8.539 40.2344 6.49565C40.2344 4.45815 40.7823 2.86762 41.8781 1.72406C42.9738 0.574682 44.4689 0 46.3631 0C47.418 0 48.3739 0.211878 49.2308 0.635634C50.0875 1.05359 50.7666 1.64569 51.2679 2.41193C51.7749 3.17237 52.043 4.0402 52.0722 5.01542H48.9859C48.9102 4.2782 48.6304 3.6861 48.1466 3.23913C47.6629 2.78634 47.0684 2.55996 46.3631 2.55996C45.483 2.55996 44.7865 2.91115 44.2736 3.61354C43.7606 4.31593 43.5042 5.27374 43.5042 6.487C43.5042 7.71763 43.7606 8.68406 44.2736 9.38649C44.7865 10.0889 45.4859 10.44 46.3718 10.44C47.0771 10.44 47.6658 10.2253 48.1379 9.79575C48.6158 9.36616 48.9044 8.78277 49.0035 8.04557H52.0896C52.0139 9.53165 51.4485 10.7304 50.3935 11.6417C49.3386 12.5472 47.9951 13 46.3631 13ZM54.9223 1.75017C56.0472 0.583393 57.5656 0 59.4773 0C61.3891 0 62.9045 0.583393 64.0236 1.75017C65.1426 2.91696 65.7022 4.50169 65.7022 6.50439C65.7022 8.50708 65.1426 10.0918 64.0236 11.2586C62.9045 12.4195 61.3891 13 59.4773 13C57.5597 13 56.0414 12.4195 54.9223 11.2586C53.8032 10.0918 53.2437 8.50708 53.2437 6.50439C53.2437 4.50169 53.8032 2.91696 54.9223 1.75017ZM61.628 3.65707C61.0919 2.94888 60.3749 2.59479 59.4773 2.59479C58.5797 2.59479 57.8599 2.94888 57.3179 3.65707C56.7816 4.35947 56.5135 5.30857 56.5135 6.50439C56.5135 7.69436 56.7816 8.6435 57.3179 9.35163C57.854 10.0541 58.5739 10.4053 59.4773 10.4053C60.3749 10.4053 61.0919 10.0541 61.628 9.35163C62.1701 8.6435 62.4411 7.69436 62.4411 6.50439C62.4411 5.30857 62.1701 4.35947 61.628 3.65707ZM70.3097 12.7824H67.2671V0.217682H69.8288L75.1794 7.52316H75.2494V0.217682H78.2918V12.7824H75.7564L70.3796 5.40725H70.3097V12.7824ZM83.4152 12.7824H80.2065V0.217682H88.7919V2.79505H83.4152V5.6511H88.3023V8.09782H83.4152V12.7824ZM93.4173 12.7824H90.2087V0.217682H93.4173V12.7824ZM106.942 7.47091C106.942 9.18917 106.435 10.5417 105.421 11.5285C104.407 12.5095 103.005 13 101.215 13C99.2625 13 97.736 12.4283 96.634 11.2847C95.5328 10.1353 94.9822 8.5332 94.9822 6.47826C94.9822 4.44654 95.5301 2.8589 96.6259 1.71534C97.7208 0.571784 99.2249 0 101.137 0C102.658 0 103.943 0.406342 104.992 1.21903C106.041 2.03171 106.648 3.07949 106.81 4.36237H103.638C103.48 3.8051 103.179 3.36683 102.737 3.04756C102.294 2.7283 101.763 2.56866 101.145 2.56866C100.237 2.56866 99.5248 2.90825 99.0127 3.58742C98.5051 4.26659 98.2517 5.21569 98.2517 6.43475C98.2517 7.67117 98.5257 8.64635 99.0736 9.36037C99.6215 10.0744 100.358 10.4314 101.286 10.4314C102.008 10.4314 102.603 10.2369 103.069 9.848C103.536 9.45907 103.792 8.94825 103.838 8.31546L103.847 8.12394H101.539V5.92973H106.942V7.47091ZM111.742 0.217682V7.98458C111.742 8.72187 111.934 9.29653 112.319 9.70864C112.709 10.115 113.26 10.3182 113.972 10.3182C114.682 10.3182 115.23 10.115 115.614 9.70864C115.999 9.29653 116.192 8.72187 116.192 7.98458V0.217682H119.401V8.3242C119.401 9.73476 118.905 10.8668 117.914 11.7201C116.923 12.5734 115.609 13 113.972 13C112.328 13 111.01 12.5734 110.019 11.7201C109.029 10.8668 108.533 9.73476 108.533 8.3242V0.217682H111.742ZM124.524 2.62961V6.19963H126.403C126.992 6.19963 127.453 6.04003 127.785 5.72073C128.117 5.40145 128.283 4.96898 128.283 4.42332C128.283 3.88347 128.111 3.45101 127.768 3.12593C127.424 2.79505 126.965 2.62961 126.394 2.62961H124.524ZM124.524 8.38519V12.7824H121.315V0.217682H126.718C128.281 0.217682 129.478 0.580487 130.311 1.3061C131.145 2.03171 131.562 3.05047 131.562 4.36237C131.562 5.15184 131.369 5.86874 130.984 6.51312C130.606 7.15162 130.078 7.61892 129.402 7.91495L131.929 12.7824H128.327L126.159 8.38519H124.524ZM141.467 12.7824L140.672 10.0221H136.545L135.741 12.7824H132.471L136.711 0.217682H140.637L144.877 12.7824H141.467ZM138.573 2.88212L137.166 7.72342H140.043L138.643 2.88212H138.573ZM150.542 12.7824H147.343V2.79505H143.863V0.217682H154.022V2.79505H150.542V12.7824ZM156.042 1.75017C157.166 0.583393 158.685 0 160.597 0C162.508 0 164.024 0.583393 165.143 1.75017C166.262 2.91696 166.822 4.50169 166.822 6.50439C166.822 8.50708 166.262 10.0918 165.143 11.2586C164.024 12.4195 162.508 13 160.597 13C158.679 13 157.161 12.4195 156.042 11.2586C154.923 10.0918 154.363 8.50708 154.363 6.50439C154.363 4.50169 154.923 2.91696 156.042 1.75017ZM162.747 3.65707C162.211 2.94888 161.494 2.59479 160.597 2.59479C159.699 2.59479 158.979 2.94888 158.437 3.65707C157.901 4.35947 157.633 5.30857 157.633 6.50439C157.633 7.69436 157.901 8.6435 158.437 9.35163C158.973 10.0541 159.693 10.4053 160.597 10.4053C161.494 10.4053 162.211 10.0541 162.747 9.35163C163.289 8.6435 163.56 7.69436 163.56 6.50439C163.56 5.30857 163.289 4.35947 162.747 3.65707ZM171.595 2.62961V6.19963H173.474C174.064 6.19963 174.524 6.04003 174.856 5.72073C175.188 5.40145 175.354 4.96898 175.354 4.42332C175.354 3.88347 175.183 3.45101 174.839 3.12593C174.495 2.79505 174.038 2.62961 173.466 2.62961H171.595ZM171.595 8.38519V12.7824H168.387V0.217682H173.79C175.352 0.217682 176.55 0.580487 177.383 1.3061C178.217 2.03171 178.633 3.05047 178.633 4.36237C178.633 5.15184 178.44 5.86874 178.056 6.51312C177.677 7.15162 177.149 7.61892 176.474 7.91495L179 12.7824H175.398L173.23 8.38519H171.595Z" fill="#003CFD"/>
</svg>
